<mxfile host="app.diagrams.net" modified="2024-01-17T08:33:27.879Z" agent="Mozilla/5.0 (Windows NT 10.0; Win64; x64) AppleWebKit/537.36 (KHTML, like Gecko) Chrome/120.0.0.0 Safari/537.36" etag="TTy76RyZE75hv6fn5ICL" version="22.1.20" type="github">
  <diagram name="main" id="jFdMw9sRUQEUuWR9TA3O">
    <mxGraphModel dx="1221" dy="699" grid="1" gridSize="10" guides="1" tooltips="1" connect="1" arrows="1" fold="1" page="1" pageScale="1" pageWidth="827" pageHeight="1169" math="0" shadow="0">
      <root>
        <mxCell id="0" />
        <mxCell id="1" parent="0" />
        <mxCell id="1jPVc72UJ_S0n0Acf6Za-4" value="" style="edgeStyle=orthogonalEdgeStyle;rounded=0;orthogonalLoop=1;jettySize=auto;html=1;" edge="1" parent="1" source="1jPVc72UJ_S0n0Acf6Za-2" target="1jPVc72UJ_S0n0Acf6Za-3">
          <mxGeometry relative="1" as="geometry" />
        </mxCell>
        <mxCell id="1jPVc72UJ_S0n0Acf6Za-2" value="ipmi_main" style="ellipse;whiteSpace=wrap;html=1;" vertex="1" parent="1">
          <mxGeometry x="120" y="390" width="120" height="80" as="geometry" />
        </mxCell>
        <mxCell id="1jPVc72UJ_S0n0Acf6Za-6" value="" style="edgeStyle=orthogonalEdgeStyle;rounded=0;orthogonalLoop=1;jettySize=auto;html=1;" edge="1" parent="1" source="1jPVc72UJ_S0n0Acf6Za-3" target="1jPVc72UJ_S0n0Acf6Za-5">
          <mxGeometry relative="1" as="geometry" />
        </mxCell>
        <mxCell id="1jPVc72UJ_S0n0Acf6Za-8" value="" style="edgeStyle=orthogonalEdgeStyle;rounded=0;orthogonalLoop=1;jettySize=auto;html=1;" edge="1" parent="1" source="1jPVc72UJ_S0n0Acf6Za-3" target="1jPVc72UJ_S0n0Acf6Za-9">
          <mxGeometry relative="1" as="geometry">
            <mxPoint x="320" y="590" as="targetPoint" />
          </mxGeometry>
        </mxCell>
        <mxCell id="1jPVc72UJ_S0n0Acf6Za-3" value="变量初始化" style="whiteSpace=wrap;html=1;" vertex="1" parent="1">
          <mxGeometry x="120" y="560" width="120" height="60" as="geometry" />
        </mxCell>
        <mxCell id="1jPVc72UJ_S0n0Acf6Za-11" value="" style="edgeStyle=orthogonalEdgeStyle;rounded=0;orthogonalLoop=1;jettySize=auto;html=1;" edge="1" parent="1" source="1jPVc72UJ_S0n0Acf6Za-5" target="1jPVc72UJ_S0n0Acf6Za-10">
          <mxGeometry relative="1" as="geometry" />
        </mxCell>
        <mxCell id="1jPVc72UJ_S0n0Acf6Za-5" value="xxxxx" style="whiteSpace=wrap;html=1;" vertex="1" parent="1">
          <mxGeometry x="120" y="700" width="120" height="60" as="geometry" />
        </mxCell>
        <mxCell id="1jPVc72UJ_S0n0Acf6Za-9" value="" style="shape=image;verticalLabelPosition=bottom;labelBackgroundColor=default;verticalAlign=top;imageAspect=0;image=data:image/png,iVBORw0KGgoAAAANSUhEUgAAAjsAAAIzCAYAAADmhdg2AAAgAElEQVR4Aey92+9dx3Xn6T+j52kCDGZw5hfI4xbHR80IsExLGQaJKDJOOrSYi2YEwro4HDMyYI1GkrsHYwrWEDJzm4cIESMgBihRv4Dpl4HToID5EbwENgbIA8khCKn7adiwGQFuPjTZAoIarlW1qlZd9u2cOrd9vg8/7N/Ztat21apvVX32qtq7vjDZmRr8wQbQADQADUAD0AA0MFYNfGGsBUO50GihAWhAa+BLj/6P5muP/ioe7vCACw1soQYAO1tY6XoAwP9jAIJfMTtPnjCPvfzn5qv/8/9u9v36EXTmul1/8dvm29/8e/NX3zxr/hc+/rl5+otjqHeUAf0XNNBXA/PDzoHT5huHvr6EzvWY+drvfNc8+subV7k7X/vX5tefeKq6jR499K45fGDx9ujK/+PHfjRzPqgMs+nnW+bwK6fN43pQW8D/XWWPGlqltrDv139gvvrY/p56edL88+/8G3P43X9rDv+f/8Y8/Sf/lzn8F39j9n+1QRcHTtu6+vKb5huv/Mg8z3/OjnwutenXzVMvvGue+jKl93Xz1LE3zaOZnemaXANtddsWFtk0u1coV3fdfNUcfObH5q++82Pz7V8JHp0v/cqfm3e+8/fmnWdeNo+0pN8nH93lINucNl+bWeehvD4/c+vsW+apQp9N7fj5V2xen3/F1vnjx6TuC/mY03a+PEinZ1tHHcyjmQ2CnamZPPZdc/jYJgLPU+Zf/PYPqwMPdbTLgJ3JzmLyP49wlxd3QNlbBqFHD512wNCjw/rl3zFfPXa6H/D8D2fMrxPofO+7ZkcGjf/uN8zOP2+4j4KdwzLgSb6//KY5/EKiKQp7QfLeAjvH3jXfOPYt1Wl/y6Yl95C8VT121M3+vzY/evPvzf/xG982X4ru+6vm6d/4G/NXb/69eWN/g52i6+e4Ruzdkd4gfUh9daRZbCMc903z1LHTSX1NjQabkJ9vmcNRvc5hi1nyiziqTcH2RU331EiAHdcIDrunPTuI2ie26OmPnu5ecE+E1Ah8w6MnbXkakCdGeSoIcb6hG9mB0+7JsnBdUye57xXz9NFXzJcKHh77ZPIj8/wL9umTYMDm/UfOe2Cfsg7zEww9iUq+5P7UQZ82h7l8dI7KZJ92rAdBrqdzOg51HrbMzfDxlPnyb/7A/NrjuYeHnvyekry6vE/0k7d0Nuoc3cfDjn8i1/mTJ3Qpw4/MYbI921VdJ2n7upB4acNqzr/PR1FDHTbV+mmzvSr785xnKoPNK9//kPNUiP2SBuC1wXFDnri+VNrl+msu+2SnYF+VHufV29Z5P9TvRq/WLx82Xzn6A/OVfe0enp3jH5rffPffmq/+TlpfDb9l8CWw8W3MDWh8joAneG8eP0ba7AM71AakTUy5Xzh8KNzD21/aTVTvLe3H2+rdhk6/pW4e/9D86e993/z2b1nvzne+etx87at/Yb06v/Wa+f3f+7H53x6P7cRaOub6pWPf4jZGfYjU09BykP2472grry9j7h2Tzt3fl+omamdic9WmncfTl0XVJ6VH56WPlPTpWIYdOt/UJ8S202nhf9hm3TQQwQ65MO2gToNB6PAo09xw9AArgwk3vG/5gScqoDRwOUpDk8HKu8R1Z9s9JbbzlR+Yr//G4bjzU/ewedBlkIHRdghhgHMdhY8bgI0gTuwhZQ9gNzUMIzJwvuI6KRrkXngzzpfYiY9fN1/9g++bfxGdmzI8Smfq7+Wv0XmX+rENyV6ryxkamKQjR7IJdZh8HxnwuD7sQNavQyvn399D2YwhgDXU16Yd17XYg+4vnTeVMQeW9OlU3YvhPbZrpGF131Ld+bJr+6o4AcgEGEIdiY3K95uaySPHzdO//1rildDxp6YK7Ij+HQD5p3rSMw/4kvc2z86b5lEPUE6z/rfKs9xLjg4WfZuM+p2ytnN7lXU5Idj53W/b9vjF4+Z/ev7/MT86/kO/Xufp3y3DToBpgZxCPiT/ciyWQ9mr9TrqX8XGylaiIx/Xhal2RvqTvkPsIprkdsF9lE7TlUX1ARKvCXZa8yZ5xLGl39f2x/+it2UfI9gJjSY0Uv9E4Qb0bFB0TyV6gOFG5jxElGbUWFwHqp+I2fviOjkbt2XwIc9OYSorugc1vKSjteECDiQ41YHpPEln68/Zp9SsHH79gkrHpVmuRHoCPV2cypIBkeP5TogGZPGQkT3SAds9ocmTsutsWuvLdZq6fsj2tu7s/YIG0kbZnH9Kj9OIOmXRkLJPwaYBIDuuc4OJ9dSRPUJd+vsnUK51ZeFVnoLVvQp2zeuvuexRe/DlT+suGczIDlK3TXDMnp0eU1lzTGPpPPA6HGkz7ihtSo6ta3b4wcXVeZIO2VNrjjWmbSVtzrUfvyZI0mkdSJvrJoIdSuPpH5s/fTrougl2pC8Lg3+sNavB8OBg20yiKS6TtIHQh0T9jipvsHHIn+gwC/O20+nahxnJG5VBtwtJq+0YyhvrNbt/a33k+W+7J8Jgr2VpIIId+0TjvBbUWFWjkoaTPTnzNeTZcQNJYUCjuH4QJTgSj4jv5NIKzwd2Nsi+V8zh33+tuEg5ugc1RsqHT186KznS/VTn5PNcOhc6lOgepTguzbzyqEP+oXn6QD6FRdd62znvAHVUoeORPNMAGkOgrRN1vqO+JP82Xmpz+7vcsbXn36fn61bbv92mfWEnt4fYJe7UfV6KHbIMPipPVGeJXeP6ay+7bg9i3zyvevAI+RYNxvebmgmBzrEfmqd6LVKefYFymMZyWvBwQXmkNTgyHSxeB7Ffqp1wnm0ga3wkPd9WQlsq1rtuk1kbTu9Jv9vrZvLls+ZPj//QfE3evNKw88Xj5uXjPzbf4YXXIW2tn6weZyiHh2HfNhPtuT6q3O5svkRXXic+rZI9Q3vQZfFxi+3C3ieUV+sV01h9bIdrQhtaV1tEsPONF2SNi3oClifQxAPATxAELb7h2afZsA7GeiX8U4+kw52oW8jovEKUFl9HnYm7Tp6uguGOmaeeLYOOvYY6aOcJ8R2IlEe8F/lAI0+0dnGl6ohKHZter+QHSBWnAXZ2vvb9RtChvPPAInkXt7OyjUynWe9EWBvkOzO2G9WZrQP9dKfX/lD92vpQtnLl8B4hD4hBvF359/kgLZQ0JGmWbKr103GdlMvaI9Slv7/y7ATdUDmCXbwe5V7U+Stbp7rrKnvRviq9tO7kiduXpeDZ2ff06Z6gI3U04NVz8RwKiOjBT5+T69RUZ7dnx9laNOzT03rr4REhnbj6obq1tsrX7HTWzc7U+DevDn/bfIlh51fN04fzN7REL1pLYfAXrQ0sh9ZjSeca7pxmuP/00/tSv+q+ZBefloIdpXGyl+gs1bOUs3QM5dWw0/DgqXWD/zGFtQEaiGHHL1iURlb/SJ2JHXDqp11qwJtwLprGWqBotBdiIXbRnfACy7GQvCO/vTvsACABvNe7ThzgvPH/mn/zxt+bdwh8llbfAko9+7svv2meWsLnJEr1ZR948Op5yTY411O/S2tXw/OzHNjRT7r6iXqNDbNMcS8SdqKBSZ64F2V3wE5vYFimvnAv1zF+8V+aX5EprUW1AaSLNgANrKUGAuyggtaygjBQDSd42Aw2gwagAWgAGtAaAOwA8gB50AA0AA1AA9DAqDUA2IHARy1wTfb4H0960AA0AA1spwa+8M/+i18yNf6O/8uT5s+e+21zWNL74m+b0y+cNP/qK6X0D5p/1Rj2S+affeUPzJ+98KL5zhdLcXGuRn0hDegIGoAGoAFoYFs08IX/8pf+W1Pn7ynz5//rH5uPvx/+/vqIpN0WRtf8rvlrFe/j779m/nW1fEkecKxTz7Aj7AgNQAPQADSwWRr4wn/1X3/J4A82gAagAWgAGoAGoIGxauAL/83kvzf4gw2gAWgAGoAGoAFoYKwawAJlLFDGAmVoABqABqABaGDUGgDsQOCjFjjevNjONy9Q76h3aAAa0BoA7AB2ADvQADQADUAD0MCoNQDYgcBHLXBN9vgfT3rQADQADWynBgA7gB3ADjQADUAD0AA0MGoNAHYg8FELHE9x2/kUh3pHvUMD0IDWAGAHsAPYgQagAWgAGoAGRq0BwA4EPmqBa7LH/3jSgwagAWhgOzVQFXZOvXHB3N+96P9+/sazfiA9dyacp2tuvFgw+DPvmJ/7+BfM3jOFawAn3qZotNAHNAANQAPQADTQrYF6sPPiWXP//XfMKYERBpcGYCmFUfzdhuslTRwBOtAANAANQAPQADQwUAPVYIe9OmdeVRXwqrnRCC9p2LNm732ADui8m85hI9gIGoAGoAFoYKgGqsHOxE1BydQVT1tpT4+msKIX6KzZ09NgTXF1OvhfwSXEP1T8uB6agQagAWhgOzRQD3YYPMhD49bmRF4eMqYKS9fs8BTWRSOg5K/N0tiOSkHjQz1DA9AANAANQAP1NFAPdpxnxy48FrA5a84VvS823MNN6umhOKVzxbTqGQPCgi2hAWgAGoAGoIHxaaAa7PC0VeSJSYAmAZVojQ+DUgJGgB1MUSWaQQc0vg4IdYo6hQaggWVooC7s6HU2kacnrUxaoKxfP0/BKP2dxsfvZYgD94DOoAFoABqABsaggWqw49fZ+O/k5DCjv8GTf2fHApBc46e48HQPDw80AA1AA9AANAANzKGBirAD+h0D/aIM0DE0AA1AA9DA2DQA2JmDFMcmBpQHHRw0AA1AA9DAGDUA2AHswDUKDUAD0AA0AA2MWgOAHQh81AIf4xMKyoQnb2gAGoAGhmkAsAPYAexAA9AANAANQAOj1gBgBwIftcDx9DPs6Qf2gr2gAWhgjBoA7AB2ADvQADQADUAD0MCoNQDYgcBHLfAxPqGgTHjyhgagAWhgmAYAO4AdwA40AA1AA9AANDBqDWw17Dx+7EfmG4e+nlTw181TL5w2j0P4iV2GUTSeOmAvaAAagAaggXXRQFXY4c091XYRessH3ihUhUXbRdCmnyrM/x9tLFpZNF9+03zjFQ01BDnvmqe+PDWPH6Pz4fe6VBbyUVkDAFoALTQADUADW6GBerCT7lLOG4FeMHvPFAaotjAW3uI3An300LsNXp0fmedfsX+HDxTyjoaxFQ0DYAntQwPQADQwHg1Ugx326kSeGNrYswF2dtrCpmbCMHTWnFsYWHzLHH7FenFiMZM3R2CnFD6eio/LjXLBHtAANAANQAPj1UA12LGActHI1BVPW73/jjlVApbUC5RcQ3ElnUWIj7w6zx/7VuKhCNNWmMYar+AXoSekCb1AA9AANLDeGqgHOwwsdvqJ19xEXh4yggrbvWiiNTsadhbu1bHem+YpKgrXa3nWuwLRwFA/0AA0AA1AA9BAuwbqwQ5DikCMgE3TVFTzmhz2CGWg1F6IQZV84LR5/oU3zaMasHr9r6e4Cmt6eMGzTIHRMQYmevNL1gLRMX4LrCNtyrNbR8THJP+taXfka9Kadke+OtJuzRcvAI9tEgFoa75oEXkcN7JnR74WWeZFpt1a5pHaE2Ue2Fd0aH+R9hzUD/fqcyv2+7hfMpOxfbatBjs5pDQDDTWKfI2PrNVpWudTp3KosUcDIxrB1jcCdNJ12hbsCDtCA9DAumqgLuzoNTqRpycVAC1QFi9QCMuBKYRVMSA/9cQelyrpApgATNAANAANQAPQwNpqoBrspGtyaN1OWJcj01oX/fd0QpgDGv7WzmK9OuWFyZWBCmJfW7EDbKF1aAAagAa2UwMVYWfdDdj0uvm65xv5Q+cEDUAD0AA0AA3Mo4Etgh0IZR6hIC70Aw1AA9AANLCpGgDsYNoJ007QADQADUAD0MCoNQDYgcBHLfBNfQpBvvEEDQ1AA9BAPQ0AdgA7gB1oABqABqABaGDUGgDsQOCjFjiejOo9GcGWsCU0AA1sqgYAO4AdwA40AA1AA9AANDBqDQB2IPBRC3xTn0KQbzxBQwPQADRQTwNbCTuPH3vXPPXl2Yxo95aZPX6beBeZdtt9J7KfTrYT/Gw2ar0X4BJwCQ1AA9AANLBkDVSFHd7vajd8JfnnbzzrK5S3glBh2ReU3fYSvGM6Xae3nqhkFIIJ2mzy0UOnGXbk95DBeZFAssi0W8sI2PE6bbVTJR3iHoBoaAAagAaWq4F6sEPbPWhAYXhp2P4hC6O9svS17ZuIziMSCxR2x2xsCLpcsc1Tb4iLuoIGoAFoABqYVQPVYCffxTwFGF1JSRjDz1lzTj05kydIe4ZmLWAaT8MOeXnS8Mbf4v14hUAp3Uz06+apF2hqi7aksCAVrnFhh06b5yns2LeM5MHfvzXttjz2SHuHrpE8/cg8/8Kb5lFlZ8kL5S2FP9pLjM7pa3yeVRqNNsM1/fUFW8FW0AA0AA0sTAPVYGfipqEEUHjaSnt6dCWmXqAdt1GoXL+gTUFp0J53GsuubynBDgFFWMvDgMBrYBxsEGQ4qCGAKG5KyuFp2l2w4wCmIW2ZsrNAYvOSQg2FUX7T85xHBUH8O4ElgE5b/SAM+oAGoAFoYB00UA92GGbU7uZnXk0ITYVFO6IHIYQ1P7GXp7ah5lmg3AY7kdfjwGnnRbGAwWEKZmrCTq+0HWwW79sGO3rRssp/7TpBeqEdwBawBTQADUADdTVQD3acZ8cuPBawaYIWGy5eoIl4dhwgCfRki5i1d2hV/xcHfAU0ki+CHZ7uUmEqbhE6VHg/ofdIm9NU01huKi1Nv9GzA9hJoL1uA0zrAb9hX2gAGoAG6mugGuzwtFXkzUmBJs58tMaHp61iMOJwmdYSgFiHYxFIFHRIHtfCs2PXEOnpqSJkwbMDoBHd4ggtQAPQwAg1UBd2NJxEnp4YdCY7tED5ovGem2yNjvMMRfCUprGi371gR0OGAiEVtwgdKrwf2XelbfPhp9c4fbtIOk0fnp0V6WmEnUqqLfyGtqABaGDVGqgGO34qqvgtHZnWCt/g8aDjOnuZuvLf2Vkz0GE48W9aybSQLCa20MFvW7lrgjelC0jouz/v2je1ovQl7bZGMjTt0+YpupefmtJvj0mZwkLlDMgGw1hb3hG26saP+0OD0AA0sC0aqAg72ywaBR14UocLGBqABqABaAAaWCsNAHaqCBKwsy1PByjnNj/UoOzQPzSwqRoA7Kwz7Mgam2h6K59u2lTxId/oOKEBaAAagAaWoQHAThXYgViXIVbcAzqDBqABaAAamEUDgB3AzlrNq84iYsRB5wcNQAPQADTQpgHADmAHsAMNQAPQADQADYxaA4AdCHzUAm8jfYThSRAagAagge3QAGAHsAPYgQagAWgAGoAGRq0BwA4EPmqB46ltO57aUM+oZ2gAGmjTwFbCzly7ngOOAEfQADSwtRqgb4r1+Lo7vraONrJmbaQq7KRbPoRdzaeGNwotbiXhaNTtpSXbRaTbSbQRW98w2v+J9ol69NBp89SXp0Z+942P6/DkAA1AA9upAYKcd12/SbATfpfsUdprr3QdzqE9LUsD9WCHNvPMNgK9YPaeKVQmg40OSzYGzcILacxIjdQIZQ+rsH9VvfSXVXG4D+oMGoAGlqsB+6V46T/9BsNZX0x77vXw/mTxUJ/Lrc/tsnc12GGvTrR5JwGMBhpt2DiM42pQ2rGeIO0ZqiUCDTvNjVXnFf/Xsj3SgZaggU3WgIYd6+Up1We2gTCgBlNaa6CBarAzcdNQAig8bZUAjG8YiRcoB6WpKZ3z8Wc0nExbYRprkztc5H3edoD40NBwDYRpq8ePtU1jkVenGYSG3xd1BZvV0UA92GEAedbsvX/R8LqbyMtDmVVhuxdNtCYnnbZy4HQ/S6NOobFAuY4d0QhhR2hg2zRA0NMyRXXgtHn+hTfNozM+kEJP26an5ZW3Huw4QLEQI2Bz1pwrit6GixeIBM6eHFnA/P475twbF4wOX0ojoIaqN92MGq124dp1P9E0WLZpZ9wh6Okzuke8Xqgj7dZ82YXWOt9R2h35mrSm3ZGvjrS3scyw54+SwQ4aora5tL5ikW2y2JfrwcrWdVTWzjg6Pv5fyji3pXVSDXZ42iryxORAoyuya5qK0ou8P1taQdpm+B+dITQADaytBhi04oe8tc0rxpOtW0dUF3b0Gp3I05N2UMnbV4nwcnBK4+M3OhFoABqABtZJA+TJjbzKSb++TnlFXrav7VSDnXRNDq3bCZ4ZmdZy63miMDK6hR/5xs7Sp6/QKLeO8tHZbV9nhzpfZJ1jYTL0tUh9zZ92RdiZPzMQC2wIDUAD0MDmaQCvm29enW1bOwPswKsDrw40AA1AA9AANDBqDQB2IPBRC3zbnl5QXjxhQwPQADSQawCwA9gB7EAD0AA0AA1AA6PWAGAHAh+1wPGEkz/hwCawCTQADWybBgA7gB3ADjQADUAD0AA0MGoNAHYg8FELfNueXlBePLFDA9AANJBrALAD2AHsQAPQADQADUADo9YAYAcCH7XA8YSTP+HAJrAJNAANbJsGthB2TplPXrtqzIn3zNsAHYAONAANQAPQADQweg1UhZ1o5/Ldi+Vdy92eWff1PlostGVtGTEH7Dx5HpCETmH0ncK2PfGhvPByQAPj10A92HnxrIkAhqHmgtl7RhvR7pF140xy7U6yQ3rrJqI6vSX/D9jBQA/YgwagAWgAGtg4DVSDHfbqnHlVGYA8NTHs8DXk0UnBiH7vnjXnlIAWsfP520c+NoamsOjvuVMqrwRN5PE5b3an75l7co1MdelzEsbH82ZX5RlPB0uGT9g+0TDsjzYIDUAD0EBJA9VgZ+K8MbJjOcOKnqrSnp4EdlJQ8tNhOn7FgY2hpwg7BEICMHa665MnlXDg2cHgWlGHpQaJc6q9wdZob9AANFBJA/VghzNkp6Pu71409yMvz9QQ/AgITZpghz08F+10GMNR7O2pNRA0w87H5to0dLa7z1019468FMQG2Am2qCTAWnWKdIJuYQvYAhqABqCBWAP1YCdaZyPQ42AlgZsi7BAgaU9OGqfi4ArYiUWARgF7QAPQADQADYxZA9VgJ19jExYdcxjBTOHvxotTw/CTrNlJp7ZqVgJgB426pp6QFvQEDUAD0MB6a6Au7GjPTOTpSYyQeW3ca+d+6sv+ZhCq6NERMc4MO7xQOZ7qkjRxTOp4AfUGG8PG0AA0AA1AA7NooBrsTNzr49p70wgrGexQ5cXf2WmMO/Mg+pK5dsK9iaXfqPILlWlBcgwy2ZqdnalhUPLxZTEzxDeL+BAHuoEGoAFoABpYhgYqwg4qbBkVhntAZ9AANAANQAPQwDANAHZm9hQNMzSECXtBA9AANAANQAOr0QBgB7CD18mhAWgAGoAGoIFRawCwA4GPWuB4ilrNUxTsDrtDA9DAOmkAsAPYAexAA9AANAANQAOj1gBgBwIftcDX6ckCecGTLjQADUADq9EAYAewA9iBBqABaAAagAZGrQHADgQ+aoHjKWo1T1GwO+wODUAD66QBwA5gB7ADDUAD0AA0AA2MWgOAnYEC33f7dXPk85Nm/1uLovYPzc0Hd8ylU8PSly87f/LksHjrRN7rnxf7Fe6V2pi2LPFf/d6QuuZtVsLXy2P70ZfLm8K6y/fBrXvm5vnu69ZfWygD6ggaWKQGqsIOb96pNvv8+RvP5qTo9syKdjgX4JAwv0fW+lX+YmHntLl09565e/l0bjexUcNxdthZgwG8oUyLFP5saa/QVgQMJ94zb++cMp8Q7Pjf69dGMtsy7HRtrTKjbU/tmbszPBxkedwYDW5AfcOWg/tv6HHxuq4HO+l+VwwuF8zeM7oQdif0G2fOmhR2GJTef8fsnblo7q8x7CxSlG9dvmMe3N0zby21s5hxkFlqHrWGVvn/im0VeUi64GGVdkruvUjYIR2ev76CdpOUcSvbA2ywyPEAadfVVzXYYViJIIU29oxhR4DmVAmMXNxzi4Kdj46bI7ePmv2fuWmoj46ag5+/bo58dtQ84juqQ+YJOid/tw8FQn/LXc9hx80+H4cq5IDZ/xlNben46TVdFTfb9NWEnvT9NEC8kelkhwZnOqevCYMkbXRqfNzw/70jL4VyR+UslOHEMWN+/Ifq77i59pvuOgr7i18zk988Yu7JNfTbp/lr5hM57473vv8VFf4Vc+0jnfYxs+vjFvJSLcxCTbCN2Exgp2xPWy4ddtUYPeX05HljyDujoUWHd+Vfx2Mvz0AbtNTV7l/8ofnkxNS8/f3jvi7pd3dd2TqMruX7qLpaNOzsWI8oprN0feH/oF3YAraYmmqwM3FTUDJ1xdDy/jvmlHTg2tOTwo5cszM1C4Wdz183T3w0NXYqimCE4CSsv9l3WwOKBRe6PhIKQ4++jsIJdvRaHvv74JUDcVxVzihNOj/30ykNsiXYIYiR83awjmFGBvCknG15dWF2YFSDGkNN+M3hHx03937sznG4gyEHQGGQTAdN+zuGn+F5zOzcWS4HOkUIcWEt9tx9TsCI8mrBx69RIdhhuHTXMARI3XSUja6dYxqrva4sVN776LiF0x0HPR8dMW+TvVrrysVVkGrr3cWl+AuHnalhr+itD/u3t04ddNQH4sPW0MBGaaAe7HDF22mq+7RuJ/LyWIgREJqsCnacF4dgx4JIDDvpwBiuUx1fC+xoMHrkyklzRHuGOhrG/J11M+z4wZYGsSMfx94G9v5cNfqa1A7l3ymcJAPkztSQt8AI6FD5FexwmPbyqDC6XxbeYb9yHlW99Y3PQKKBRaeRg2FuT3391JD3zMMlp63hJk+vsxwEDkUQi+8bp9NVVzacvXDOThpYsrpI6oqu1VBK1+vfy4Cd+R8W2uyHsFhPsAfssXkaqAc7zrNz40UygkDPWXOOOs8UbtLfaiBaqGenC3ZoqkumsNwx884sCHborZIHcz2ZLhl20qkKByh6kMsGPV/P+eA7ofTEk7BTCPdxF9vIGF4ap4hyOMlgx3tvCtOCFNaY9gLL1VlXZG81/RjZulAXUV1NDdedB1e6Pnj3eLlvrVwAACAASURBVFBYgmdnwguVr5sPorwv0Ka4z0Y91QNO0BaqwU4OKRZ4yJvDYeotLfb8uN8WjkJF5OmEsLkESyDTBjtuTY72zsCz02L7dMBrnepI00kHV7c2JxowmwbfNK3Kv1uBpAN2eFCPvWSZZ2dVsONBUjxsdo0Ot6kCDIW21lVXLj2Xfurl4XSWATtzTwNX1hFgCDAEDayVBurCTrZG56JJYYY7v3X07DDshPU7E+flWZZnZ343/KyeHTvVEi2k7dNIowHSPv3TQmW/BofhJ3nC9+na6+21YRFy8Arl60DC4Nt3ULKLVh8Mfi3ZrrPxU08+z3TfPrCjpqmcl8en1QpSfcs1w3UddcVTVh400/S76oqup2uOmV2qcw1VYrslwM7808BpufF7eJuDzWCz9dVANdgJU1cXjXhuiqBDHWAGO/TmVogn8dN1P3MJqcuzsyMLl93bWJ8dNfv92p6p4TU4yRTXkc9lobJdkKy9QkPX7Ex26G2sGT6Q5gbU8OZQviBZr8fJpl14QLIDvKThB2cZrIrHACmGp0BowFPemNTzk6TBA6x/A+vX+K0rD0p0rfMUhTe9msCpuXHxADiLTaM33MiesoanA3ZoKk+/4XbiPXMtXbOzCs/OTntdNU83Wtt21pVPv6GOFg47eBtrrr4xaZtIq7lPgW021zYVYWdzjbAuAubBeenf2VmDemOwUaBUq/OlqY3Bnp01sEet8i8inVnqatGwgymstZouWJf+FPlAX6Y1ANhZxIAwc5qzf0FZV+ra/09eHzVtkr3tM7P9pHFbLxlAR+wxx7FGXS0SdvAFZYDO3P3FHO0D994Y/QF21k6ss35ccJMarJ5W+UP1FtYmlWFb8lqhrhh2wttpelpVvkUkU6hxWLeNsTdWt43W/uFn7fpg2HSMmgHsoKFtDJmPsQGiTBhYoAFoABpYvAa2Bnb+5NY/mLY/iG3xYoONYWNoABqABqCBVWgAsOMgaBXGxz3R6KEBaAAagAaggcVrALAD2ME0FqYyoQFoABqABkatAcAOYGfUAscT0+KfmGBj2BgagAbWXQPbCTt3fmb+44N75sGDX5h/d8eu5Vn3ikL+0JlAA9AANAANQAOzaaAq7Jx644L/ejJ9Bdnvcq7dg27D0Pt6awkKp68q+68oXzB7z8xWoCYhhMXJ/978u/90z/zHX/z7aMFyUzycr1sPsCfsCQ1AA9AANLBsDdSDnXQLCIaaFFrs5qA3zpw1MezQdhFuh/SdqbHQFH7XMEqAnf/P/Afl0ZHzNe6BNNCAoQFoABqABqCB9dNANdhhQDnzqlr/QQATww5fQx6dFIy054f+L4LSfMYTqPmTW4AdNMT5tAT7wX7QADQADWyWBqrBjgWUMHV17szF2HujAQawo6BwswSDBo76ggagAWgAGtg0DdSDHfbO2GkqXnsTeXmmhuDHr+FphR2XRhJ/XsN6zw4vTv5H8w/JRwbnTR/x0fihAWgAGoAGoIH11EA92HELj2+8SAUV6HHrblK4SX+raazMI6TC5hGRnb66Zx78p5+Z/zsBHQKhedJG3PUUN+oF9QINQAPQADRAGqgGOwwpkTfGAg95czjMv2l1Ub11ddFYOLKVYa+ruzBZhA7PDgQvWsARWoAGoAFoYLs0UBd29OvkkacnMWrBs7NI0CFRe9jBAmV4sSp5C9FZJu0adkXbggaggTXVQDXYCVNXwXOjvTbRwJDCjgOj8J0dl0bkKZqvYwXszGe/qP7WVMzII+oYGoAGoAFooKSBirCz3gYG7Kx3/ZTEiXOoM2gAGoAGoIEaGthC2LFfUP4P/2i3iRAIqmFMpIFGCQ1AA9AANAANrJ8GthB2/sH8CfbGwrwypuKgAWgAGoAGtkYD2wk7ePV8awSOJ6z1e8JCnaBOoAFoYNkaAOw48Fm24XE/NHZoABqABqABaGA5Gtga2Pm9P/hd89j+x1byBzEvR8ywM+wMDUAD0AA0UNIAYGcJAFQyPM6hQUID0AA0AA1AA8vRAGAHsIP1O1ikCA1AA9AANDBqDQB2ADujFjiempbz1AQ7w87QADSwzhoA7AB2Fgo7b12+Yx48uGdunkdHsM4dAfIGfUID0MCYNVAVdk69cSHa5JM2Ac2MJ1tD6H20/C7pstXEBbP3TF3hrXyB8vufmtM/+6fk71PzDLtO/9g8/ymFyW8q+9+aP/rZL8zz35uax//uF0k8SSdc/8xP5Zw9/tH7zn7f+4n5XpTu1ExK5xbkwp0Ndk6bS3fvMSQRKMnf3cunWU+Sppx/8OCOuXRK9OLi3t0zb0mZzl9XwPWhuanSlDQsjJXue918IOmM+PjIlZPmyOevh7/PjppHuLyHzBP6vPr/iY/E5sk1tw/5dp+l+/lJs/8tidd2PGD2f/a6CfeQa+m8TsNedyRLV86rMn3+ujl45YCZ7JTDqPw2fGryfL9ujohNPjrOdpJrqY/j61W5JzvNNsn6xEhXSTxnb2sHyfdxs8/Hoeu1PcRO6VHianvodOR6uS5NU87r+KF+9t2m8yq9t46ag8qe3kZePyr9XvaU/OHYrh/Yp8k+9WCnuN9VCi12J/QbZ86a+xHsJBVEae3W3f185bDjOicGl09/Yh73nRWVncCGIMXCDVdWEUgCAOkKZdBRaVo4siBUul/pnE5vff638CGQI/li2MlgRoCHYOaOuXs3QMoHt+h36l2y0BN7nPL7fXCLYCukJXkY1ZEHGzVQRdoMbZMHdBnw/TV2cA5QYn8LCGRx+F5qoPPphPtY29rBVdIJ9qbzKj4Nqp8dNfuunPSgEq6lNJvScffrKHuWf8ovxfnsJN/XAmECO4WBnuIEG6VlLf1O7arK8tlJldYw2NH2zACFytZoT2vHchlsnRxU9UJ2o99yv9SO/FvgqMuejRop2Q3nYv3DHmKParDDXp1o485XzY3dGHb4GoKcFIxSMbP3Z5ywQ2Dyvb/7Y//kyxVBYPPpT8zzOow8QQpg+Dr2DgVvjq1E6xXSaWqYKd2P4einfxvnIa2DuX9rD4qAyNCGl8MHlTmDnR19Hd33url0+Y6bOvvQ3Lz1oSFoiaGpH+xMorQp//Ze4hF6oKGLbabLre8Z8kVx717+0HmvtG3iuFHa5J269aEtu/NMxeUZattwPQ96kVcihFmN2d/pgEVhfC6Ny4OX9QzlcTrgQ+mO8iWDZchHPLj7+7tBWuAjXN9xv5lh56jZfzt4Nnw+dqamrz1DHkv2boadJ65YwAueNwV/yn5x+iU75Od8OTJ72mvbYGf/leOuvg6Y/bctgB5hbcR1ZvOl0nN6abKnlMN6dHV7KdkN58ReOMZaqAY7Ezc9JVNX585cjL03HO7gpwN2cnCKMz1LJa6HZ8eCiZ9ich0Tw8lP/9ZOVzkIkXO6rKVzFM7wwl6hdDqsdL/Sufntq/MZ/08D+KwdlIaYkMc+sPPBqT1z9yHkTM5fZ+iZHXamDEoEGlSuty5fz6bMAnSk+bXwYr1HDmRcngh46HzIVxrXQZW7L5WDASv6XcnjxAP+68YOTMHOcT06sEk8O0UgYc+GHYDrwA4NjDKg08ApXig1YPK0kVyjy2CvyaHJXTMH7DxC5XSg5yHBTV+VoUDnq+v/Ftj5iIBKyloCiVLaZTvEYNZmTx2Wpk9hlJ9D5gnSx1tHzRNXDgQQZj1InYW4/t4Odsr2DNcDdoIt0raJ3922qQc7PHDbaar7uxfN/cjLMzUEPwJCkyLskCdoxGt22D7N01DsmVFTVwQwKRSVvDRW5AI5NBWmPT+l+5XOdQtl9sa0eNixnaAb+AlyeNqJYOG6uXnLng9QIWXVICLnUuCw5zl9gYzkyTkKo3snnp4QruxA4OKu8/limEngxZflYT5UHFsXKr2dqdl97qoxr6V/H5trUylb19EOrnbdTj4w0T2bwCUf2MMAnMbh3x5W2vPkAYIHS/HyUNouf8kgWgSvhU1jkedKBnnt4bJ2FJvwgB6tu2kvc2hncTr2vAIOAoRGr0npHjZuCn3exqTrVnva+NG6Lr9WKNQ3QdgTt4/zuiyftsBM0nby8JI9S2XBuaAT2KKvLerBjvPs3HiRjC/Q46aiUrhJfyeNYLJjwcemVacy18Kz0zINZcGGQIQgpwQkDR4Zt/BZwMh6eRzwlO6ngKqvSOa7Lh6Uh6XVAh/RImMFCQoQAmjYqa/ggSFN9YcdAhLx7Ew4/bBoOve2JGGUTwYlZQcFLhHsJKBk7+XKpuJYG6r0svYzX5uxA7R4DkJaPDj19uxYIOE4flFqsoi1I996MHzio+A1oDU6NIXjwyWd4qBaHuS9DimOwJOko46lMts1O24B90d26ibkpQNSVNo+D8VzXelQucjGATTa0yvbwXtXOu1p4wvExfdSedB1QP8TkCUQJXE9nCZxCMiCPYP+JB6OsMksGqgGOzxtFXlzLPCQN4fDvNdGvDf22AQ0kSeo2BkMq/B1gB29liZUVgw27L356acNb1CpBcxsE4EjZQuGGfUWV7Lup2kqLORHpVXB7hYqFj2NpfJc8K5Q2TT42LL2hR17nQUl/b+9Z5RuBiQqXwxXzg7qugh20oXQdJ2cU3FC/oNd5/fs6LyWBtqSZ6cAHKQZNXgVYaGvrtxgue+2BSeeuvlI1qvYwTf2NBBMpZBWHuS93uke88AOw8Zxs5/eZmNPi8uXm96y92kDBW13/X+pDuJ0yLYHrxwd9DZW7Nmx97DnXL4jMNX2jO/t7cd1Sek4b5uuW68DCi/XC8OTv47Kb9MK9tQ2wf+x3WGPIfaoCzv6DavI05NUSpdnR6/v0Y1njv/XAXbY65IuDHaLk/3bWc5T029xsoUdvTiZ7yGAk3p2FAgNEcl817Z5INy6lMY1PS2endQLItqoCjsuf/5eCSCJl8dPceUwFGyn7KDAxcOO8zQF71NSdhXHpqnSk7LXOjIApINTGXbsU3tYqCuvXIsHYG7YUW898eB++7h7C6p5AI0HdDtIx+dUfzQ37Fi70JtHfs0Tp6lt0gYKKi9R/VH5dBp0XZoOebtOmoMZSJTSTO1gf/vX6YseIh0nvbe+hwWU8Dq8C1MQwx4k5RWMdKGuI21zPWt7OrvwgwW+2bXgF0t0vY7r/2qwE6auguemyWuTr9nR63UofvwWVxgwZjf+6mBHr6cJ38IRQMk8LQwk/2ROJ1CUXScdo8CRfMNHQMeF22ktuW/qGZrdnp11wl6JdEoneCIkfrkDEwiK4wsIcBwPIEkZMiiw4cEDY4GEp5/UVFjjd3Y8yKh0fDz71pef4mKb5+mHBcotnp1SXH3vrFy1YMcNetETfQ46MgiFwVHZ3a2pES+LgE5rHNFv29FBgwcVuQ95TZIBUvQUBtFSuWTdj8o73yP3SnA6kU2S7+yogVuAz8MOlUnyqtLQdpH85kcLOWJLOdq4OXA0TTnm6Rbsob1PM9qT89UwTZXWkc0reYuULclW6b3Fdjp/dJ30KbpdtOkHYQAjpYGKsKM6EHWDvNGt5rrVwc5jEFybHrgDyyFoXXSDfKymvcLusHumAedJtQ8PsE9mn7Z+FmEGsIPtIlYEY+IBAeig08LABQ20aSB4egE6bXZCWFs7AuwAdlYEO2iYbQ1z/GHl6RqZtommhEbzVLrIMi8ybbTV8bfH8dcxYAewA9gZzWA6/g4Lgw7qGBqABmbRAGAHsAPYAexAA9AANAANjFoDgB3AzqgFPssTAOLgyREagAaggXFpALAD2AHs4IkOGoAGoAFoYNQaAOwAdkYtcDydjevpDPWJ+oQGoIFZNADYAewAdvBEBw1AA9AANDBqDQB2lgg7bx/5mHem/uRJkPksZL4xcbJtJOrVd/mL0/XS3xgbY2Ba0cDkvo/V9AVz1EudeuGPraoNjmHXue1aFXZOvXHB3FcbftImoFnn6fbMuq/30dIVSftmURrRpqLzd+br8AXl2WHnJXPtxFWzbEji3b791gi0dYNqfG5Aly0cqJ7t9eqanfAxsGh3cNmYM0r7nnlQswPNtlcYpqHD3/xH8/Gf/Wfzl781LB7rHbCTt3vdxqP/f2h+8NZ/ZluTvT/+7t8MiDtD3UT3nie+1fZsH7mbr8wCvH7Lk5rtptM+i4Ad+cBo2B5G9yvZGFLIY9hjbnidSltn/f3ZbXOykH5THsI2NMPv25Qmn++AnUwDum/uk3/uo3RfXTf/J79LbfofzQ+eqJtuq806yl0PdtLNPYubedqd0G+cOWvKsEN7ZF0wN85cGCXszF5RK4QdtQ8Nw4z8Zpi4Y+7Kb9rI8u4dc9c3OteB+fCHoj9/3aSDAzfaRXTWM8OOHYgufPOa+ctZYaej0c2ug/XpOGqVgTtFDzh/wza/8M0fbgDwzA47c5W5YxCsVS/LTYf6CvUldfewkPYVbXmaGXZ+67b5WAEO181b18zhnm14pbCj+lbum4f0owuDHduG//Kb18yFscIOe3Uib4wFl71nQgfN15BHJwUjJ6xzZ6xHJ08rpNEm+Law1Xp2TplPXrvKU1jmtY/NtWlcHvL43Dvyktl9Tq4JXhx9zvg0rvL1beWtERbBDdWRBgj6/9aeuXTXPR0wyIROqy/ElK+jdK6bD8RDQh6gtCFzp194EtRxIs9Rv6cYesqz3hzXaAd6dthm7r7p0ymVlc7pa3yH7u1JZbpjLp3fM3ejcjt45LTVwKA6ZbalKrOkXbJxdI7v/aHR8dO8+00Yi2XTebN1Ivdu1eETeYfIT9kDBpuJ2y2+7OVI8qU1RGXWvzmdYFeyRVNd6frz931wj69vLS/V1Zxlztqkqn9772Zv6sR5WqluQhmkzNZWcb3F57Q+4s1vpT9L7u0ffGx4FD8Ko/tIPuja+L5crqi9h2vjNEN/UM6f5FOO8mCj4LpQP211yvdX0JFeG+zs2vUpubc7RuVSGuLzoc+Sckq7TO/LvzM9B3tIPLGt1q39P9g0LcOQ3ye/67w5rXa09duvjhJ7ZXrvH17Ps+Omp2TqisFFT1VpT08Jdnj66qw5tzM144MdqRCCnjLsEMgQ8JCweLrrxHvmbV+x6+PZ8Y2GGuMtO0DazpMapnRattPz1/pyiB3CMW+kFOYag+8Q085P7hPSyRok5S9q/C3XFvM3G+xIPqiTS8ufdlgWIAIsUqcTBiJtT533hrK3PalxmO7MkvqRDlc67aSjtfnU8XV+krTUgCq2aDzSU7UGG37KJvd336kEq4vUzvZ+5Xz5DjbTR2zXtK5yndr0YzjQdmn4f94yp3WVaDeGoQYbKDDT1+v/2YYNmmJbiFb8/e29vH39eWeHRFOxPWPbZ3pL9ZukRXkttbdG3fm8URvXUy22zQ+Zvi7bwpY5LuPUPUwEgMnK6fP1ML4qI6fj+0KVtq+D1PZpvdt2Emm1oW67bebqU+e19P+oYYcLbKepSmtuCH4EhCYZ7LjprRetIbcSdp47FVz30/fMvdfOm10vohXCjvIUaHjwjZwaza3r5iY3POm00sbW3EDSDsE2NkknxIs7M9t4y4Oci0OdRQl22LbBg+a9Zdr+bPcFwY7voCifqpwqv6GsKtxroXRuaibceVlYKnVYIU25Nul0I1vpe3TUpcq3va+9XjpWWafm7ey8k7z+TAZ+7hgFctIBKGggLVdZO6r+kwHC2kjBZWOZ3cCk6yobHOJy6rwtssz2PlQ/8tSu6pH1pH8/tEVUPzbPEZDo8KSMZN9SG/Nt32vS3Se1twon/YkmQhkEoHV5qFxxGfJ85LaP9K3uO2lt76K1sIaKvLo0ldV3KrVoC76/LVNcZp1v+3/JvmwfqpcH182ly3cye1A439drIHmwonqMtN1Hz9LO9CyE6iejh2+5tuXYCjst8XTdVf6/umfnBgOLQI/11GRwk8BOCjfpb9s45jPQaqexJO8tnh092K4T7KgO3zYw2xGFRp42YOrAOhqyEjGnkzTMCALctVln5gZ364KNO0ffWWTpSj30OS4LdtwgoAadUFYNHZLn0jkXxh2kGwTTsqv0yeZRJ6vCbFvT9yh12pKXh8csrtaDuk7VuW/PJU8Od5L9PDtkp2jg1vfI8pVAXhauy9xncBhQTp2vOcvsbafaBU970vRI1CYEhvQUcFeedTj9LzAS12No++F8uR1LuE23eepE2z7XG9ezGtglHQ0Soc3IPfscbRuPPTkWfPq+mFCyRd6GJC/avnk5o7olfUqZVR8s1+j7ZrbXcSUNOup0ErCVdHsdnzzvlmQ4GCqB0JhhR9bbBGNZ4CFvDoept7T0G1s3XhQwuhi9yWWvuWD0mp+Qtoin/xGw099WYud8MAmdEjWwaMDkzjc0Zo6bDri603f/Zw2Vz4f76Lzk97Nl4jSSp8F8EHblb33S0zZaFuy4AUUNvqHjzu1QAkGxkT7m9pe0CoOYurdNQ64le4Q61en7/7O48fWtXo5ShyjenoJW/D21dnQHruNwh59AsD6X5VuXeT7YWWSZUxvIlC8P/J0DWFw3eVqq3JRWQ/vl9pbaPbOnbktd9y3YXt07tAedZvx/4zWt7b2wZmdHvD1x+iVb0bmiLXwfVvJmybkOm3itkm0Sz012X3uNh7/WunDlatQKPDthikV3KOr/8hqdi8Z6ehLhJJ6dVEjw7KTTWFO7eFl7f5TtU/vV+s0DpurUNJjQ/zl8qAbMjSlppL3fxoo7PypPY2dGdvAdg9IZ37/8ZNrPPi2w48pWnCZz9VLKb9oxsn2lU1cdVIib26Ev7Oi6kvLac/oNOmcvdW97bXxfjpfCpOgvsTOXya09kvs2H930gV+3Uxp8pH6TJ1O6v6sH38lLnvhoB4CgUatN/zvSjA3zHpJsMJF7xfDEZVXto7mcSpc7c5Y5KqPYRnTuytGYJ9U+03TkN9n07p754PKdZNoplCHVcdBM0t4lTbFnk4b0dC7HsXXn65XrSsoY8qHtXdK7Dm/63752HtbtFBfIt7T3si1sHqP2LTaQ9i6/m2yi9VnQeXrfuPyp9ks2S2ys6qrJVoPOlx5k/D3svdv6z0H38umWyhnO1ZvG2sk9NEXQoYxtG+ykbj9etxAWKvOToAaZbBqLKiwmblnMvAhRSJoycHl3qmqYFOYHDi+2pDOVTkJcqaoT5sYp5+XoOwJqDHHnFt2POwLlpk+ulfzH94gHKrkmO/ppBvXtl+wVdBkc0zRdI5byuKPYKc6Pnl54WL9UJlf+UFZlh6zMVP5goyxtVVe+jIVOk8PUve216r6ubtP0pUx0vQ67e/lDc+muPL2GjsbnwWtFwtzgT9/Y+bOmtRLOrl4fElcgRGkhuiapD6U/yo/W983zcZm5TPp6tl17fWubNJeX8j5rmUV3qrxKA/ae+TUhX0n7zOrC2tXaJS1rni73C9pG/sUCyV+chtYJx/V1FdueymGvVfEz/aswLkeSvyhfSi+FMlvgce3dg7eOI2mn95R8SnndUd1bayxdixTKGeL7uuLyqvtJ+V3amT6d7X38rC4KbVLS5H4q9CXt2tV2yf+PbOnadP69HbFnnXv2zW9F2MkL3jcTy7huPaax1ttGy6iHsdyDOzHfWfer17yD6hevms2KA3btPNiOzD+VFwaX4eVxnaMaRIanUbuci05vG8u8aJvOnv4s7X38Gt0sewJ2lrhdBMQ/e+NYG9vJ09BA0KH8rxZ27OAZnvwWVRd1Ycc+4RemsKpA1KJsMF+621jmtWnfqa7maO9rW6a0jMv8vUJ7AnYAO53rsdBo5xu8xH6rgR3nISBX9VI8I3VhR2yHYx0Nwo6w47ZqALAD2AHsLPPJBveC3qABaAAaWLoGADuAnaWLblufLFBuPFVDA9AANLAaDQB2ADuAHTxlQQPQADQADYxaA4AdwM6oBY6nqNU8RcHusDs0AA2skwYAO4AdwA6e6KABaAAagAZGrQHADmBn1AJfpycL5AVPutAANAANrEYDgB3AzsbCjnyPpO4H7FbTENEBwu7QADQADSxOA1Vhh/e0Uht+0iagWeU98475OV3z/jvmlHIb5puF1tsElPKw8i8ov/+pOf2zf1J/vzDPfy+u2Gd+qsM/Nc8o+0y+9xPzPRX/e3/3x8q2f2ye//SfzB+9H6eX2V6nJx+5S7Y22CRw2DjYeeuoOfj56+aI/vvsqHlE14tck57fOWD2f/a6eeKj5jredztJ+/YhpxEbN7rv5+1pdWkH4c31ANvANtDA+mmgHuyk+10x1KTAYvfPunHmbBF2GvfS0oPBjP+vGnYYZH76tx5Q+PenPzGPc3ksrJxOw+U3g5KCIwaflt89bcSwoL8E7L5uuUnAs1GdCoPMcbOvpX4euXLSHLxyyOz/7KTZ/5buMNphh+IdyQBJ4rfH3SgbttgO5ZD6xhFagAZSDVSDnXyn8lfNjd0Ydvga8uikYLQzNeTZGS/s5J6Xx//uF8bDDcGMBx8nUgYc8u7kcSfunPfu+GuHCTyDHfH2KAAS74ndDDTduE19nTf6Qi+dv2MuXb5uZLNA2RBPg5Scy9OmjQGvmw/0RqIqT3bnb9k8ryNPznOl7xvHL21oOsyOaaNq/N0JOwFKLPQc8HA8afXs2HgHr+jrdRlCuo15k7rPNpbU6eD/NvshDPqABtZXA9VgZ+Kmp2Tqiqel9FSV9vRsHez8rfmjn6WeGJl2sjDjwUWeXAVg5Cjn+RjHicApuq5deCXY4d23ZcfsU3vm5uXTfsBNr2dY8VsQWPCxey85CCJAccBC5zm+3rVXAYyFKtnlV3arjn/HwEJly3dLzjob8lb5PFIcnU9Jo7Aj8AA7ZvdsitsFOzr8o+OJp6YdWNiz8/nrpgw87XEl/7YOUnhs15DExRF2ggaggXXWQD3Y4Q7eTlPdpzU5Z171gyQZgOBHQGjSADscz6358dc2DRwDz690GitZb3Nag89OAkJSLoKcT39ifkN7gCQs8fbQlFgGS/7a5gaYwgsLtW1n7CjMeV/0fQgsGGAsUDCcqDgBdizMxPCi4hQgGZCPqgAAIABJREFUhsAq38SyC3YKeaT8KMiiMod8NdvKNuJT5pPXrhqT/p14z7yt7dD0P8NM07qaqWFg8etsDpknPtdTWT2ARacfTWnZuPGaHZ12V7kRbusfdoAdoIFN1UA92HGeHTsVJdBz1pyjjj+Fm/R3NjjQFJiCoyx8uOBWCTvsedHTVHrNDf+fLEbemRoBGDlGAoviECyJl2iYXYqww+t2xKPiPDTRImYXxhAjU0nq2Bt2Ug9CfdghQIqB6qF93LokO3Wm8h15f4bZMaqbNq1qz012XQ4ztOA4eGry8Ob7CtzI+qAhcRdU9qy8uE9z/cE2sA00UFsD1WCHp60ib44FHvLQcJh6S0t7cJrW6USeoAod5Sphhxcjy2JjLosClAhcnMAVDJVgJ0pPXTtUHCXY4akp5/nQ/3Payksz0f9n9aPARV0XPCglz44+l3tsBnt2sukrZ1vvfZqlM6nh2REASe6vvTLFt7UGAgunJ96bgXGz+kzyivDIaz203eF66AkaWL4G6sJOtkanYdFxl2eHwpPFzfOKY3Wwky8wZljxnh4FPgqEZFoq9Qrx758pT5Cb7rJvdQ0TUAo7/FstUGXY8R4P8fIkXh8fru/dBTtTk4JUnJc5YUcBVq4bC1X5lJjO/4L+b/PsZGt0pmYyB7DYNTwCVv1gx9Z/wRsGuAHcQAPQwIZroBrsTHZk6uqiEc9Nk9cmm9basdNWEu/+rpv+qmjc1cGOhZnoGzuRl2dqJrwIOXxjJ/5ejoUlH99Dkh2QLfyEuHxdmn6DHWVwC1M6AjJusGdoCFM9Ny/vmbuyeJnTFAAK1+gFys1rdmz6DDx+ikzfuwN2ilNRMi2W50neCAvgY4EnlHtJA3wL7MRTVgJbFlLsVJb9P153I9/KofU9yVqgzwV0KK22uHKvh0exaxFg1XUNegr2xbWwBTQADayXBirCznoVLBXa6mDnMTwRYHDcDA04uM3WOaH+NqP+UE+oJ2igUQOAHWwX0SiOFBjxe72Bfvb6Cd4wgM5Y6xjlmr19wHZjsB1gB7AD2MHTEDQADUAD0MCoNQDYAeyMWuBjeCJBGfBkDQ1AA9DAfBoA7AB2ADt4ooMGoAFoABoYtQYAO4CdUQscT0PzPQ3BfrAfNAANjEEDgB3ADmAHT3TQADQADUADo9YAYAewM2qBj+GJBGXAkzU0AA1AA/NpALCzFbDjtjnou2HlEp9wdp+jjTU/NtembUJ+yVw7cdV88mTbNYWwJ8+be0deWirM6Q8lLuIrzfIhSLwiXqjvJeoWAw/sDw1slgaqws6pNy74ryfT15CLO5e7DUPv660lpJOSMN5H64LZe6aeMdf+o4JPnjdmVhiZvmfuvXbe7Iods+OWwQ7Z8rlTZjJ9z3xCsCO/tV0W/LVggp4UdgRU9Jeb7S7x/XUuaRRhZ659v/rnIerkaZuLz/WGpXr3dv0FaEk/OVfaJkPVU7wTvKSBY1QHyl44D21AA2UN1IOddL8rBpcUWOyWEjfOnDUZ7CxgPyxd6dsNO+XK1/ZZ7/9n8OwQ4LxGXqOrRYgkGLl5nraN0NtU1LNTCXbExgwsbrNVOVfluCrY+eykOfjZUfOIG3QDoCRgw+HJOcDOUj2PVXQGuEKdbaAGqsEOe3WiXc9pv6sYdvga8uikYMT7asXX1m6UK4cdPfi+djVMr7BXxg3KMjjzUXtqkt22yWvBYkvO+/hhWujtIx+HQd/Hiwf16JrXek4XcXl0HqfWg6I8TK3pRuVO0mko26BpLG3vrNxh7y0LPcoeBAy3PjTiQSEvjPfQcNieuXSX9gK7Yy6dp73C7pmSd2Y47NBXjGl/L71vlwYxfV72AXP5TvYwC54jHV+VsWZH5WBl/23Zp2v5nh2y9YMFQWvtfgjpLUiHNTWNtEYJc9VgZ+KmoGTq6tyZi7H3Rnt6UtjhsLNmT0+Dlaa55hDhamGHoCQASLHDo8G5YRpr9zkNAxZwooG/cxprahg8skHfnVeAUsxb0e55PqJ7pDDEvws2KObdenLCepuBnh26F5W1aRpLeUAYavTGlxRGACPnGCQcXLgwmkIKA2wAJ2272WDHQdQpGhDsFg4etHwdlO/H91bl0nlZ6P/imaFNTm8f4k5y2Z6dUBcYSBda116DsDPsvHkaqAc73BDUzueRl2dqCH4EhLJdz3kKS4XLDupJGvMIbPWwo7w5pU6jBXbSctOi3gACUx7U29fsNMFODizpvdp+R3CzQ0AiMJPCim0YWb7JDiXYyWwxEHbEvg0LlCMQYZhRHpAMGCx08BoZFRbSKMNHCM87hfI0lrqPy38GYny+fD+uJ5W/tnpLw1IPnEz/RUAtNk2PAju8s/pJs/+t5Xt20vLgd6452AQ22XYN1IMd59m58SKJSqDnrDlHnWPqyen6XYqTdrIDf68WdmRQl+kq7alxjTAb4FXjpDA/RWXTqAI7DBoCKOp+fW2rQYX+956pMpwsHXaK5UhhIYGMDBiUh0WFBZhJ07N2DOG5XdcNdubqBD3sTM3ko+Pm4JUDZtmenbnyX9RIXme4B2wCDWy2BqrBDk9bRZ4YCzzkzeEwfsPqYvS2Fr2xxXDkprEYjKTzSYFIzs94XDnsqHzbJ+kEeJpgh4EiXkeTQYOGDnUf3ThjL4yItsf0WkN6Nu0ANZR+ALCSZ6d0TiCwyxbhPrpMM/1PwELTVOmfTFspoLHpKxhSYQFmNh926nh2SFOHzBOfHzf7r5w0R9yU1r7b8ZtaE/YAhfU9BEhH1OLmtE4DOIlmcUxthN/QBDTQrYG6sKPX2USeniQjGcgEMLKVlv5O4rcOwOVr1wl2+FXodJ0MA0vBy5Ked16eABZU3u7pqDLsTA2BU9NaoT4NyELOKXPtRAwsdgBV5zjf6rfUYQnUkjJzHvsunJZ0G47FqSEGIDeVpYCGys/Xy+JXFbaWsKPXFzWUv0+dDromgRWCk4OfBdhhWNEwQ9d/ftzsk/wl8dN794EdqgteMM5rncrtP00Xv2EnaGC7NFANdsLUVfDe2CmtgkEz2KFr6O2tENev75FOcc7jSmEnm4YqQM2OLBbOp7pksJfXqK+la3bINtE9JH3rEUmnwHjxrrJnlP5gqLCglaZJHUnsMZA8WT3EYXmZdTiBHeWx1xoSVa68M1Nemug68s7Qq+gP88bgoz0/5fU8Zdix6aReI1lkbMFJp63f5MrzFoFZlq/yAB/fQ+U9Km+hTc4ansIKLVT+/HXv2aE6IO8OfYvH/tl1Pb5uGH4kzB0VHDHs+Lgu3HmNJA0ps9hZzuNYsZ5n1QfijfLNpk1sWxVhZ70b1kphBw1+cxq88t5sYoPeyjwzCCav46PNbU6bQ12hrpagAcDOVmwXsd4gulYDNGBngzpe8aQBdNaqDS1h4EJ50acP1QBgB7CzQYPbEho4YAd6wGANDUADo9MAYAewMzpRDyV+XL8EiMTggXYGDUADK9QAYAewgwa4wgYI0AJoQQPQADSweA0AdgA7gB3ADjQADUAD0MCoNQDYAeyMWuB4Ylr8ExNsDBtDA9DAumsAsAPYAezgiQ4agAagAWhg1BoA7AB2Ri3wdX/aQP7wRAwNQAPQwOI1ANjZFNjhLRSumtKXiqOGUtp+ofOJhb60XNjKgbcfkC/+Nn2N133r5O6eeUvfZ65XuCnNZX07Jf1ysXy7pfyF4sjWurz4H9AMDUAD0MDaaqAq7Jx640K00Wdxywe3Z9Z9vY8WbR+htorw/0cbi85Hfhv/BeWFwA5Bjt3GYfc5gp3wOxrUGXq2BXZEZ8sELrln89FuuaC3Wjhg9n8mG2rSBpzyv6QRn2vfY0qnJfFxjNoABrG1HcRQT2irfTRQD3bS/a4Yai6YvWd0RdgNPm+cOWsi2Mk6kpFvBJqVV9tozv8He3bi/bOK+0+1wk5DfjfWsyPlWT/YoQ02D1454AYdDSgx2NiGH58D7Ei94thnYMA10MnYNFANdtirE3liaGPPGHb4GvLopGCUDv4MSmfNufT8HL9X59l52Vw7cdXEu5RbwNDn4s04400zdZiO48UYbQJKm2oWpqQabadhJ76vT78BdmQDRt748taH8ZOfg50PLt8xsjFm/40aHWic3zN3H7hptNI0mYTJJp6ujJQvupfdDdvG500+vQ30VFUpnDq6Jtix015Spgdpuf096naW5Nk5eOWoecLvGL582LH2bPLw1S2v196C7In0UV/QwHZpoBrsTNz0lExdnTtzMfbeaE9PB+xQXEmnliBXBzuP2d2/T7xn3vYdN+0UHsCCd/hW4XbH7xxYCHoy2GFPTkhrMsizE6atZp/GmhqGnnTQJ9ghGJHzDEx91+EIjMjAan8HYPnQ3JR0yaZ8L7nW5efBPQYe0g/nz8OShZUAXumaHekAyrDDA76/d5qWxK1/tLBzwJCH5omPKH3ATq2+AenU1ytsCpuumwbqwQ4P5Hb6idfcRF6eqYkApg12FuDVIaOvEnYmOzHcTMgT89wp5wmhsKsmnj6y3pb43NSUYCc7Nwh2pEHS/XK48mJt8OxIeCPseMCg+wwBgxw0CDICoEi+5Rhfn+VH5z+bXhsCO3SfAFVc/iw9yVN+1B468xp54OhPgaqH4TyuwM7kraPm4GdHzSMrgB2pbxzz+oFNYBNoYL01UA92nGfnxotUYIEeNxWVwk36W3Xy7BFKQKmGiFYLOzGo0KAXQCYBIbbFsmGnQ6QaFlRdSb1kcEHXFCCgHVh0HmJ4ofukcdnDoqaxHqi3t7L86Pxn+RoAO5yOm1bT946gTpej3v8ednamZt9tWqi8fM+O1DeO9eoVtoQtoYHlaKAa7OSQEhYZc1jpbavdi8bCkSusnuoqDKrziGLVsMPeHJ6qIrjRXpSSZ6d0LgYmsUUdz06H2DQsFOolg4si7DRBRene7bDD94s8LPH1WX50/ueGncSzU7CH1E16rOLZoft9dNwcuX1UvY2lwUfsSQuUw9tbWKAsdsEx1SV+QxPboIG6sKNfJ488PYmYGjw7OTAl8QYMLGnlrRx2eCrrvNl98ny27oYHwXTNjvotZcnAZmearAeykDRsgXIPG2tYKNRBBhd0TQoV9DsClLb7xvBC5deeHb6f8qZYL09YD5TlR+ef/w/XiocorAeSfOV5kKk4vw6pYAupq9pH7dmx63VOmoP+1XPy9rxujtw+5BeJM9zwdJctTw3YSe1cu4xIT7SHI7QADdTWQDXYCVNXF/03cyKvjR4YSrBD55K3t2oWdvWw48CkYY1G/NSfe37CGg+71iMsVLZTXmH9R+o5mr3RMDTo6Rr+Xzwb1lPj30qS62TxLsONnvKReH3yk4OGhh37plRI++7lvegjhK2wIwuWXX7lrS0PO1m+6T4BjjzwSHnVQuiaek3TimFnyguVj0Tf1rHeHTpn/46bfarNMez4MHeNh6M0rg23C6FDfYkemtdOhWvT/OM3bAMNQAOr1EBF2FnvilwH2FllRePe663PjagfBkENfrDpRtSbgl7kF5rdVg0AdjZluwh0WH6KZlsb6+rKTZ621MOFQWN19QHbw/bQwFANAHYAO0uHCFknk02B8YA6ZLoLDX5og8f10Aw0AA1sowYAO4CdpcPONjY0lBkDDDQADUADq9MAYAewA9jBFCE0AA1AA9DAqDUA2AHsjFrgeJJa3ZMUbA/bQwPQwLpoALAD2AHs4IkOGoAGoAFoYNQaAOwAdkYt8HV5qkA+8IQLDUAD0MDqNADYAewAdvBEBw1AA9AANDBqDQB2NgV2eDfzq2q39AZCrrnrOW+tIF8qbnol3H2DRW3fwE8v9AG69NyiOhO9HYS6R/3tDYbs79VQPyp/XU95zV+Nxof9umyH8Pn1BxvChmPSQFXYOfXGBb9VxP3di+bnbzybk6LbM+u+3keLBgA5LxuGpuEDBolSBW38F5QXAju01cTH5tqUNhmlLSrC78iGDTBhrwHsRLaaU6c6rRh2pOPNt9LQcZb+P21K+vnr5uCVA76th3247DYUOszu66Wup/hqD680/yEtKT+OqY3wG5qABro1UA920v2uijuY253Qb5w5a2LYedXciPbFCjum16rEjYedvoPoYM+O3lvrqvnkyYJoWmGncD3ldQ08O7W0E9JZpWdH7LyGsPMZbUp61DziNBoABbATtCP1hyNsAg2sQgPVYIe9Omde9U93k50UYKaGryGPTRGMzppzakCnHdCLniF1zRCDrQ52XjbXTlxNdjq3gBE28yTPit3gM2zoGRqEDtNxfPmfPG/ijUL1RqIhHX99ZEMNO9bLk13XADuyMSR/CVk2AJW0Hex8cPmOkS8lRxtICgxx2m6qLErDeYzUhp1Rvii+2owz2lFdp1ncaT1Ou/90m8COjp9O7+mwe0bvkE72ko1HJe9+A1K2W765amQzvobSL09jRfVRLHeXFmYId56Z/bdfN7Jx6LJhx05XpvUwQ1lEuziqfhx2jPodaGNjtVENdmQaSgCFYCXy3mhPTwo7O9aT469fwA7oq4Odx8zbRz425sR75m3fUGhn8gAWaTj/fi0HFoKeDHbYkxPSmgzy7IRpq9mnsaaGB9kIVB52kAIjcp4BRA3SEi6DchRuB/0w0FuA8GAQXTs1E/5dGOwazpenh/p06gIjUo40n1PzwS2djzjfAiNSLv6t1jXxoC32eqiVcj4bYIftGe6dpr2wDlumod46ag66XdQBO320hGsWpknfz8LGsHHQQD3YYYE5aKF1N5GXZ2oiT00GOzZDYc1P7OWpUWGrhJ3JTgw3E/LEPHfKETKFpdNH1tuSTimVYCc7Nwh2RAh0vxyuvN0boEHCG2FHDeSTnQQMeHAWaKB82HAGGrpfFDcGqgwCmvLXcJ6hIklfytJ+VHl0HWqx7Kqz1XnNrtX50/+7+DpuyFcZduhaD4Mcv3xdSEfqfmph/DXtWbT/p/orxZ0I7OzQlNVJs/+tqVk27BTzpeoA4aGuYQvYYls1UA923ALjGy+SmAR6HLSkcJP+lusdIAn02LTqiHO1sGOnqcQrQ4ASBpIEhLiTXjbsdNi4MBDrBpMN4lQGgpkEKKLBuxDu02QQkrfA1NF5PaJ06F5N+Ws678CqPJXUZosesFPIe+TJUZ6bKN+FvGblZG2UIMbmS8oTjhom28o1R5iHnakh8KHFyICdOezJdYz4vi+APTZ22mjd6rAa7PC0VeTNCYuMOUzeskqODDQ8bRV7c/z6nkpiXzXssDeHp7IIbrQXpeTZKZ2LgUmEVMez09G5FgZiuT8d+8FOAgpdsJOAkr5fBgFN+Ws6rzXF16RekSZ7JGVIy15IS+c1s5POn/7f5U/HDeVvhp3Ys9NUhvy8nTad17ND6R4yT3x+3Oy/ctIccVNa+26rN6+4XHbRsqzvCZ6hPF9U5gBO5fBgF4TDFtAANNCsgbqwo18Xjzw9SQZSzw7DzgWz94xc5zxDETxJ2GzHlcMOT2WdN7tPns/W3RCw6DU96RoeEXAGNjtuCsKvB7KQZCKYms1eck8+FgZiHZ4N4jSopTDDHo+wpiQL1wCyQwP6PV7Mq+8j//P9PAzZa6MFypJWR75tejZ+P1DoAzvKm+K8PL08O67Mkg8uY9EGJdhxwCnrn6T8yzhqz46Dk4OfBdhhWFFvajHcfH7c7JO8JfGljuXYB3YICh80LNqWdHCs0A9IneEIb8sGaqAa7ISpq4v+WzuN01Ap7Oy4N7W016ci6FBHt3rYkbURajGxEgwDj183kXt+4ret9EJlO+UV3uJKPUezd3Iy4IZpERpUBFgapk5kmsYN9CGuxHP5SWFI2cIOTAIxYRpLQEDW99i0CS7o2pB+e77zdAVGugfEDth5WAY78Lo8390zl24FaON8iX2ovCmMaZvd+pA9Zj5vOsy/habASrxMPuxeNo3YXb4ZtJLCCi1U/vx179mhe5J3h77FY//suh6fF4rvw9w1Co4YdtJw5zWSNKS+va0yLc1QLqSBAR0aGJUGKsLOenco6wA70jnjuN5aQf1sWP0wCMbghzrcsDoEWIwKLNax/QF2NmW7CHQG6AyggUQD4qUD6Kzj4II8ATjXSQOAHcBOMoBsbwOV6ZAw9Ram0LAmZHt1sU4dNvICHUIDs2kAsAPYAezAYwINQAPQADQwag0AdgA7oxY4noJmewqC3WA3aAAaGJMGADuAHcAOnuigAWgAGoAGRq0BwA5gZ9QCH9OTCcqCJ21oABqABmbTAGAHsAPYwRMdNAANQAPQwKg1ANgB7Ixa4HgKmu0pCHaD3aABaGBMGgDsbArs8G7mV9Vu6Q0NcRG7nssTT/LV4+hVbf1lYLl+Wcf0S8T8W14bD19WHlPDRVka9L8szeE+eEiCBjZKA1VhR3Yrv++2ffj5G8/mxnB7Zt3X+2iRaOS8i9u41cSMAtv4LygvBHZoqwm7fcXuc7RFRfhdHEwT2JFrsm0Q3K7i8ef77VYL8blKA1YKO6KRpvMSvtSj3QDziN4XijfOdNsn8LYJas8oylt0LtlAM8s7bcKZbMWQXVPJ3kg379dgE9gEGlhrDdSDnXS/K4YXvbkndbR2g88bZ86aGHZeNTd2LxoPOMW483XUGw87fRvSYM+O3lvrqvnkyRY7A3bmaMwWVmiTTL/jN2BnDnu26LRvW8F1sD80sDUaqAY77NWJNu8kgIlhh68hj04CRv68Et65MxdN0TOkrhHPQp/j6mDnZXPthN64kzppCxj3jrzkhRZvBBpvFqrDdBxf7ifPm3ijUL2RaNegoGEnvi+lH01V0SaTfrfxkO6snp04bf3Jf7exp56OSu/L+yHJVBUdC9NVjZ4d2WbAxl+ItynTqfPMXDlqDvqNLpU3JvLiONtG5yp4dpw9l1PeoA+v08wmuAa2gQaggeVooBrsyDSUAArBSuS90d6aEuxEoOR2QU/OzSOK1cHOY+btIx8bc+I987bv7Gln8gAWaTj/fi0HFoKeDHbYkxPSmgzy7IRpq+I0FgOFgoianp1Te+bm5dMe9hh8PNAIjMi97W+/6zkP2gqOmqCmeD6dTkvS9nVUuwEGWNl3W6abADvztGnEra1RpAdNjVcD9WCHBwk7TcVrdhJQiTw1CexYUFJeIFm/k6QxjxBXCTuTnRhuJuSJee6UG+gpLJ0+st6WdEqpBDvZuUGwI8Km+6VwZaHAAwbV70DYKe0x1ehViMCEAETBzMN7f3DrnpG4+n/WRBRXyjQ1k9J5Ouehyl6be6ZUGhH82LqKvWhXE5Btihtgh9fi3D5kJpjG8rA7T9tG3CbN4Ty0AQ2IBurBjgMUu+5GoOesOUeDRQo36e8d58lxi5PJI3TujQsjmcZ6jDt0DSX0fwCZBIR4cF027JQaxPywI3BixZZ6VOzvGIi0J2dBsJNNf7mpsIW/TaZgZ4f+p8XIS/bsROBWqnOck44RR2gBGhiXBqrBDk9bRZ4YCzw0rcVhAjLJ0S9KTjpiitMUNosIV+vZmRr25vBUFsGN9qKUPDulc1OjgUlskJ2bybNTEvViYYe8M9H6n8gLs0DPToN3SuzZfrT1MrdnZ2dqHrly0hy8cjS8QfXWUXMwelPLvY3l1/doWCrVlwKnpC21l6mUFs7BZtAANDAuDdSFHf06eeTpSYxW8OxoYeXglMSfoTNfOezwVNZ5s/vk+WzdDQGLXtOTruER22RgszNN1gPJYKxhanbbMZCIx4NhJAEUVw/5NFDqxaE8xOeitF1YWGTcDjvt63tUeSOAkvN2jU7sdZKwRR5TWDlknvjspDnoXxcnWHldvallrz945YCb6knjp3ntATtSh1KnM7Qj0SKOqf3xG5qABtZZA9VgR14rl2/s0LHRM5PBjn31XOLKIueahls97DgwUQuTdfkYeF676t6q0rAiACNh9hgWKtspL+ttoIXKdL2OP08DtGBgp5qumw9osPTrXUrTUPfMAx5IY7Cx5UzOycBLb3g9uGduXt4zd/0bVe2wI+Bk80XTXXS9TIEV3iDje4TwyY4ul7v/+Xns1CduDiv7br9ujnjYmZoJe3fonPvjdT2Sto3vw9w18WvsKi6Hy0JoSUPKrW0hYTjq9oj/oQdoYFwaqAg7622YdYAdNJ711sj468cBKjw7WBgNrx40sGUaAOxsynYRWybM8YPHcsGPp/7IwwXQwSCHvgQa2EINAHYAO2j4W9jwAZPLhU3YG/aGBlarAcAOYAewA9iBBqABaAAaGLUGADuAnVELHE9Tq32agv1hf2gAGlgHDQB2ADuAHTzRQQPQADQADYxaA4AdwM6oBb4OTxTIA55soQFoABpYrQYAO4AdwA6e6KABaAAagAZGrQHAzqbADm8DcVVtINpAyXNsF8FfbvYblKr0C199xlOKss8adJLxV6ULeSNd8HYlhbAh+adNbGukE93TfTizM918zzj6GGfYZ27OskV5Qlpo49DAmDRQFXZOvXHByFeQ6ai/hJyG5V9YXuxXlDf+o4KLhh0axNIvL8vu7NP3zCdHXrL7e5VgqDRIFDfcHPbl3mx389J91u6c/XBftFu8zuNce3M1d76dsLNj91YzfetP51n+Zw3SV7qb8zFb5zg77EwWlqfaZUR6s2kDdoPd6migHuykW0Dw3lgXzN4zNqMEOxp+4goMm4by+bZ9taTjHXjceNjpW17u/IduF2EHm+ITMkOQ26qi88m7IEqGnmGQI9oA7BTs2aCDPrAz2ck9I2Lr7qONG7Yp6Z+37rT7ptWQ/4V4m/rmCdfVq1/YErZcnAaqwQ57bqJdz8lT0xN2CJR2z5pzqiOvvRno6mDnZXPtxNVk88984Ij3xoqfnnVYcbDRQML7aw2DncbpK6oPnXbkFSAPhuxLZfeXCht5KsE2wA4NzrQZJ28IKvtjuf2peOB25+z+Vy59/fXfyHNE+UjuSXt46f23fNzgeQn3VvEzz4vep6u9zCE9sYc98qajOi9R2TQI2rz5Mvt9yFzZojLfY/umLww3AAAgAElEQVRJ55jCjuQl8zDNCgYN8Uqb1qbn+Lff9y2edorCIn1JfTqvT0N8W/4GCOL+xO0H5utf0sVRtIMjtLANGqgGOxPnjRHvDcOK2gW9zbOTghL/3r1o7qv481bG6mDnsWRncmpY1IEHoCkPDjmwEPRksJO68Qd7dloGChrgaAAqTmPJwBxAgQfYdFBpgR0a1GX38XSwpvqm9CQ8qn8Gh3DfSXoPDwUOJKLrJd8h7SjfFDeCjBR2CGDCvaO4PLja9DPI4LCHdZ+lHzraty5fV9Bm0wnl1/kIccQu2n6cp6gM+vpYexK/61jUHpUp1Z+bLvM6ZVhWWubfQftyX24DGeykDwXNWi3Hp3IDdsTGOOp2gP+3TQ/1YIc7czsdxet2Ii/P1HiAIYihPxXuYYc9PA5yGJ5ib888lbNK2Enhhr0lvmMvTSGVO/XSgJOdGww7PQa/4gLlwqBeGsgZPLT3wnYyPDhrMGIgia9rgh2KGyCA0kvywvcMQBKH22ujPaJ0vvX/rGkNGcl9KDy7vnANp+M61+x6d15f4/6PbWQH7bjcIa7AzqVb9xJYC9fY9lPWVnvbao8Ta5D0JHBj43nwceWKr7f5K8JK5k1qyUd2bVpu/G6vY9gH9hm3BurBTrTORqCnCVZcuAMeD0Lak5OuASoMBkPEuVrYsYtDpdOnzj6sjynBRrlTLw0S2bmhsFN4Mu9n18KgTgP5gxhYMq9LcSCfmskA2GHPRTQVZKeLvDelFSgK+dbayuL2gJ2ozEPTVx0M2yCeAougLAqP7cyw42zSBERSr5lmdPmL/5eAXOVbgwb970G+v47nhp2hui+WU5UJ4aN+DVnaAo7bo/lqsJOvsUkWHSedh/fm0PnCmp0oPIk7i0BXDTvszeEFvvrJl4RWGkhK52JgEhtkA9fgTp/ulU8rSPrNx8KgnoHCw/KVAGhnamKvxXDYaR3QS/nwGirk24e5/EZTQD1gJ7p+aPrS2eSem8xGKp8WbgLw8G/KhwMiD34qjq3LMoA01zPlrytO0BDpMYC8jSeQr+8fn5vaqV4PSc4mGqK4HC35yK4Vu+LYXrewD+yzHRqoCzvaMxN5ehJjZmHutXM/tWV/33gxiZd13P3DVw47DDXnzW5hSogGCP3tEn7KLbz5lIHNjhsk/LUWkrJXyFvt1jKAtMZLB/V8sOZOZA7Y8QN4mg9OU09TJTqYF3a8p8aWMazR6VfmfB2Pyh/DSCnv1n4eUsSLo6f6tB0Su0a2arVPAJMhnXxJezq+hZxT5hOvRVtm1rKf1pIF7zLNFexS9OwkXkduJ69pmOqIz/aydo3XYYV4ugz4H3aBBsargWqwM9mRqSu3Jmf3ogmwkoaFt7SCuOLv7IS4dYy/ethxYNLgRZGO3GRvUwnAuNe/3Vsp4cnYwoqNRx4auj4fTIKdc3s2wVVbHFkH498cUouNOR4PuMmUjIeIfp6d7B564M/SD16OfB2NLnMKLDrM/q+nyW6ep8FS4ETgJ5Sr7GFyA2zDtJL1ykgaId/p+UuX7xg/jZWVV/Jk8xzBjnjO0jqhwX9WDwjFa9MVg0lhAb0AuX+bSnsRtXaVvpWHx8KSDSPNW6hK66wN2KXOYnu1aztNH79hL2hg0zVQEXbWWwzrADvrKxYLVGH6oU9ddkPD+pa3T/lK12x6mdugoFRefc7GDZCtw1b8fwfAMbxGU40rzq/20OF/rA2CBpaiAcDOpmwXsegG0fXknt1/0wf+WQa8zS4zew+V12QwjCbTSoPjZxqapQ6SOG15Em8YQGcpg8la6GERGkOao9APYAew44VcXDfR2NA3e+CfrWPe4DITFCTraWayQYcXZaY0GzWWgE3huvK0Vne8ZecT90OdQAOr1QBgB7DjYQeNcbWNEfaH/aEBaAAaWIwGADuAHcBOwWOADmcxHQ7sCrtCA9DAKjQA2AHsAHYAO9AANAANQAOj1gBgB7AzaoGv4gkC98STKzQADUAD66UBwA5gB7CDJzpoABqABqCBUWsAsAPYGbXA8XS1Xk9XqA/UBzQADaxCA4CdTYEd94XasMliQ4Ph64Z9QVmE1/jqeWGLC4mzXUf76nn5q8muPtb5Fe85NIRXvBvaG7wBeFiCBjZCA1Vhx+9evmu3jPj5G896I6Rh96PtJFxH4vbMuu/3yKrXwWz8F5TnGKh6AUnpo4J0jj5CN33PfHLkJbvVwJCP0slH3dy2CX7fp4edg96SwW45EbZNsPmNt1ygayS+jauud/tIRRBC967+MbkesLNjN2zthNK2DpLrWm+rUKkdzKOhReWpzQ4I8/1nrzYMe8Fe0ECjBurBDu1cnm0EGvbAItjR8JM2Xoah998xe2cuGsDOHIMbD0pDPTst20UwBLl9i4Z8lI5BRwEJ/w77EzGwqL2u4t9tUEFhd8zduyEt2heKfq8L7HTvEt5Wv2uwLUOThtbsg4JpH4LfbbpCGPSx3RqoBjsMK5FHhjb27Ak75NFxcc+NDnZeNtdOpBsk5gMaf8q/uFmi8xRkG4Aq4Wog4euGwU7j9BU9Jei0I6+OhY5Lp7QHRuDGwop4YqSTIaARIInh5mFZtCemcWdwKrO77+XrLq3T5tKtPfOBbJopu4U7b1LYqFTyRmnoPN8Lm23KUxGDmWzUGfIsG5NKGUI6Om1XL7OCQTFerhcBKr1X1eI1ZPNR3EOt5F0Te+LY+LQpbQNH126gFWhlQRqoBjsTNwUl3huGFuXp6fLsSGMfH+w8ZhgmIq8IeVLCNEUazr8LO0zTYKYHN7ZZOr3Q9FTeKKCWAYwG3sZpLAs0D/yO4G5qir01BBPB8yJ1q3fmTmFHg5BAhU5b0vCwQ5BF01Sn9szNy6cNp608RRE8JWX/4JaGEws+AczKebf3t2W2sGPjBfBJO+u4jkP+0+vi38U6lp3D10BDjWAM2MEglbSzvprHdXEfAHssxh71YIeF/qzZe9+u10mnotjz49by0HqdNFwqeIywM9lJBj6BCLZZaQqpDCClgTA7Nxh2kryVOqziAuWC90a8MzzwaaBw4pXwh/dg2NHel8L6GgYYd02AigAjH9y6Y27eum4unZoOgh3Rmhxj0GqDGIGdPXPzgfb4lBpnuQ7lnuVjW5yknlaloaLnqVR+nCvXMewCu0ADq9BAPdhxnp0bL1JFCvScNedKg6eER9NeVgDjhB07FSVeGQKUMBWQDGJsr/Kgl4GNWwwr6bKAhsJO6hkq1lepcTbAzgOCnAAkWtTa+5J6dizYFACJ8iNTU6nXSMETe3J6enb4Wg1aKbjI/fganSdbZjs1lnuudFnp/1J9pdfEv0vgG2yv01uZhobqq7eeQjljm+A87AENQAPza6Aa7OSQYoFHprXSysrX+NjC5OnMX0i698rfxvJPxDSg6TU1pQGudK48eOoBkG08eDCie4UptbSemn83wA57aAphDwc97UFJYceuf2kGCIYhTptASgOI04cGHxpg098y6DqQCdNWcb7S8sYQZstFXqb4fEmjZWBN049/d8RZBw35PJTKjHNxfcIesAc0sC4aqAs7ao2OrOGxnp6kwiMvUBw2WtjhqazzZrcwJUTAYtR6jHQNj4glA5tsLYeFJBPBVGxfSSscOwZYgYTsmAJNPP2TwQDBh4KUFHYCzJTya+/1wHt2esAOQ00BntLznK+WKako3wF2yH5chsL0m7XtbBBZquNQV5TmajXUtWbH1lGpDnEu1CNsAVtAA8vWQDXYCVNXbs1O9B0dmdaSsPCWli0wvbklYepYmOaa1UAr9+wImDR4URh4/NtYuefH+DD7GniYurKwYsPJQ+MGxAxOmhtXE1y129oBiJoOCutq7L0s8MhbTTGgMCiouBqEStNMfhBlWInT4nwWPDlN94/ufXfPXFJvieX31sAUw07rQupZPSAUrwVWua5WpqE2MLawG9XjAA22a61Zu4gH20AD0EAfDVSEnfU2+DrATp8KWc011iMU1hH1qUs78OvpoNXkvU9el31NGxR05cXGDTDbdf0Sw1sBzsGvXjcF2MEbWtAANLAmGgDsbMp2EYsWTIdHIQcZwE5uEwse7KWLvkk0EEhmXjQ+8D5DNNWSJ+9BA+hgYBuiKVwLvSxRA4AdwI5vcI3rMYqCBOwUYYegQK2/Kl5TtGcCKq1elOTaPunNeQ0B3DDP3/LzOLOt57QN7ou6hgbWXwOAHcCOhx002PVvsKgj1BE0AA1AA8M1ANgB7AB28GQPDUAD0AA0MGoNAHYAO6MWOJ6Ahj8BwWawGTQADYxNA4AdwA5gB0900AA0AA1AA6PWAGAHsDNqgY/t6QTlwRM3NAANQAPDNQDYAewAdvBEBw1AA9AANDBqDQB2NgV2+DsnV43p+n4LX6e/wNyfgBtfPS9scbHsJwv66nH6heZl56H6/ZKvPvvv1dCXpWt/s2atX4m3H7XUW6aUbZ1/rBGvxPdv32WbIj7ssh0aqAo7vLmn2vZBbwKaht2PtpOYmsmLZw2ds3/pdhLzV8bGf0F50bBT+qggnSO4mr5nPjnykpnI784nIPsNnhhOSuf61+tg2ElAol+HVspj6Vz/fLfetyGPDD21Ycftwt4Jy211yxqcZdPYLnvNDjukzXsN22e02r6tnAgb9RM+dNHVHscZXg92CFayjUADtBDsaPiJBUd7Y50151wnY8Eo/I6vna0iNh52+nbA3PkP9ey0bBfBEGT34+p+8pa6KQFC6Zxc330E7HTbqLud5J6R7jhy33XYxqIh/6TRGh9y7NvGcB1gCBrYOA1Ugx0GlGjjTgKYvrAjHao78q7oIW7/DjlJRwlydbDzsrl24qqJ9zrKB454I9D46VmHxem48mog4Q1Dh8FO4/QV2U+nHU2hEbzQJpmyASRt+CkbdJbAJj5H3gvy/OhNOeN9tuz1D9RmoZGniLwiKszH5Y1CZfNRfZS8kc10nvX0WJxHq7v0XJKvaNdzSve6+UDnIQqfmmiqivKfhNM9Gz07UZn1BqUPyyReIn3vkndoVjBoiMfaSUAjPce/1Ua2+kvMUVikL2nLzuvTEN/WUQMEcft3dV2yheofavQxSEPqDEdoYf00UA12JgwoF7335tyZi5Gnp92zkxhmVLDzmEk7/8kOdeABaNJwOwDkwELQk8FO6sYf7NlpGShogGucxpJBPwy6DC48qKSAQPUbn5NB3wMMD+QBSEJaVhuxZ+dDc1MPXklc7mhk8M8GtDgfAj4WltKwUr6vm0unRK/p9QJRUg7724NYms+GPBZhhyEm2Nruzi73eZgfTlsBZ3q9t0Osvb6dclF7lGaqPzdd5nXKsKy0zL+D9uX+rPkMdtKHgmatluNTPQF2xMY4SrvFcRu1UA92uDN91uy979bdRF6eqbFTU7Im56K5n4QH47s0GsNnE+rqPDuPmRRu4rUvpSmkcqdeGnCyc4Nhp8fgV1ygbAd6P5BT/fvBO4UAqrP4XD6g06DkBnMeqNVA/jDtGHZSDai4rEOdl+RaSjvxpoS82Dxqj5H876FM0nfHEJfuk+cj5LvNXnEe4zRtGJ2L85Ckx7CjYMjZO6ofznNZW6H9xXmx59vjxBokPQnc2HgefJzN4uvt/YqwknmTWvKRXVsqB8611zPsA/uMVwP1YMd5dm68SMYS6Glad9MMNKlHqJb4Vgs7U6M7ePo/uPJLsFHu1HUaYpfs3FDYKTyZS9rtx2SwpYGMB1yCFBtWGpzlXD6g2ydwHpx7wA57ftQ01gMBJTegBvBKGq/3gOgpLnn7qTvfE85bKS7dZ3Gwk5fX5sHDjAfNpLxiD3XMNKPCynVeAnJ1Hw0a9L/30PTX8dywM1T3nWVW5cO1G7c+o6xj1Ok226Ua7DCkRN4YCzRNi5LzNT5Tw2mohco1K2bVsMPeHF7boJ98qfGVBpLSuRiYxDbZwDW406d75dMKkn7zsQF2nNckeDSkg4mvL8NOP88Ox/Xrgyj9HDJaYSfx7IQydsGOBTIBNooXlyPPR7BDXH6+ZwOgxGla+4V0xJ7JsSGtUDa5vgwg+XVyPR274gQNkR4DyNt4sWendG5qp3o9JLl7a4hi4GjJR3atzj/+b69f2Af2Gb8G6sJO9jbWRWM9PYkhIy+QDVsk6JCQVw47DDXnzW5hSogGCP02CT/lJos+qQwZ2Oy4QcJfayHJ+GmExO7FJ9SWAaR4vaSZDt4xCPCAraGCPSphaiod0Nlz4a+3aYnXgq99EBYSp2lz3NSzwx4YPa0j+Y7zGXdy/WBH8uW9PH79UBvs2Kk4//0c8RD5Mkv+UoBy59l+pfKo8EJacfno2gAmeVjIQxpW0p6+xkLOKfOJ16JNi7Ws9UhQon87jRU9O4nXkdvJaxqmQn6L8TltW9+lheA6//g/2BK2gC3GqIFqsBOmrsK6nAA6Mq0lYcmbVg5+wnd2yut+5qmA1cOOA5MGL4p05CZ7m0oAxr3+7d5KCU/LFlZsPPLQ0PWyZqJfo22Cq3Z7WzCQNS101B4PimshRKZ84oFaAMbHTwdqHtxd3FsfsgclpO8GMDeNdffyXljvowAtvkcALb9oVU2DWYDpgp30barr5tLlO+oDgO2wE9/XvbXly53bk23jQephXWqbcN5VmSjMp9VS77N6QBogxWuEwaSwgF6A3L9Npb2IWrtK38rDY2HJhpHmLVSl5WsDdrFrrD+fb6UXnEvtit/QxHg0UBF21tso6wA769twLFCF6Yc+dWkHEe/lGDhoMIjogXxg/PW1ZR/breqaNijoypONGyC76/olhncAXOw1XGK+oGms9YEG1kYDgJ1N2S5i0Y2m68k9uz9gZ9OAi72HymsyOP/JtNLg+JmGKoBHW57EE9bH47WIvCHNtRno1kKr0MNK9QDYAex4ATaveygNSoCdjepACQqS9TQz5b/DizJTmnMMAuVprZJecW7ZdYP7QXPrpAHADmDHw846CRN5QUcJDUAD0AA0UEsDgB3ADmBnDs9CrYaIdNCpQwPQADSwOA0AdgA7gB3ADjQADUAD0MCoNQDYAeyMWuB4UlrckxJsC9tCA9DApmgAsAPYAezgiQ4agAagAWhg1BoA7AB2Ri3wTXnqQD7xhAwNQAPQwOI0ANjZFNhxX6gNmyw2iIKvG/YFZWlgja+eF7a4kDgbe5TtGtb4w4b0MbzyV6Prfw2Y6r7GBwMbNTTPU3Nf7WevxQ//mvjG6nke+yIuHvi2QANVYYc399yVLSEuGr0JaBpGW0P03k6iQkVs/BeU+3b4s8JO6aOCdI4+Qjd9z3xy5CXDm5n2+Sgdg4TaykDqj85HH3hLt304rTqdOIy2TvBfa5aPxantHh5EG4M2gKDkg45tsNOUf75vUq7SOX2fOf6PYUfKlG9JUWeAnuUr2pIndyxpaI7y+3L11X4GO+necUl+a+QNaag2C/t6zUIXa6eLerDz4llzP9sINOyBRbCj4adVFJRW5d3PNx52+jaemWCnZaDjAcztW9T3o3QMCwXvg4YdBxvBc0H7Tl03l05Rh2k/WKjDinpZFGhsJexMGWrvDdxXLdRLi4b6anfe6wqwQ/mjDw/W8FqFsmJQhy2ggU3TQDXYYc/NmVcVzb1qbuzOCDu8MehZc27ezk/FXx3svGyunUg723yfIf6Uf3GzRNtZ240+03Rcg9NAkm0k2t0oW6cedNqRV4eAhIBGe2DE69HgfSA4cZ4d3q+oaQqpCZZUfXJDa4Ad2neLQInv4bw/3iv0MA19PgYqXRbZwJSODtxK98vOJWmoMnblSyDPb45a2FzVbiZaAMmdfJPSD7y9wteuQ9nLacwKBmUN5Tqf7KTnLCSJvk0C1LpdlICF7+vbzVWTxmedtDwA2M1iy7bYtM4c+e3u62Cj7bVRNdiZuJ3LxXtz7szFyNMzxLOTg9P8FbQ62HnMcIccdeLUwYfdn9Nw24Hn626KAxF35CEtmnIa9nRuB5/iJqAEOo3TWHYA9SAgEMGDu4Id7c0hMPDhalrKD8pSz3naxU4qAw0b3w5gYb0L/46mz+x1NPDHsOPuP4dn54NbAnyUlgUfAa2ufDGIKDgq50/ZVtstsUVcZrFnKG96L2/fBu+ID9f39P83ayjV9mRHaz8FH/u7tC6tqH0GcdVOGvPenD9bJ4Cd9vp17cLXN37DXpungXqwww3hWbP3vluzE3l5poYBRq3nuZ+ET3bIEyTrfYJHqJaoVgk7cQc/Tda+lNz/5c651OFn5wbDjh58GgRcXKAcvAW+jmjAZagIYdFg0ht2bD4EDsjTUYSSZICXfHA8BQ12fY6GEJt+GSZkPU9+/YTvpz0+8n/hWjcw6Hu05qsAWDqulK3Js0PXClTZazUUOdjRNvF1ldT5YP1Q/DYNJWEC0GSfFFboXMP9M507D1EE6Y2wg6msoJ+kvp1OEQ67jF0D9WDHeXbsomOBnqapKBeeAY8IzoJPWMAs52c/rhZ24s6WOu7QSSeDAXc+S4QdHlyUZ6h35xeAxjcSDx8hjD0d568zrNBgb6El9nj4+E33ZhC457xCSgP+fuqcTOfogb0AEnTPMkx0wU4CNmke+LdAkD0KqC0OdhzMRAu26d7isQj10WnrVnCJ7ezT6tCQBpVI+yU4WRDssIcpmoZtKEuTBnFeLVGA7bz2oYuN0UU12OFpqwheLNDItFYqjq6pKkqvKW6aVp/fq4YdforlqSyCG+V658FFww91JHRNei4GJimzHkj4XMNgIdfnxxJs9enMCgMoDfRqTc7N8x+amwwdH5qbd/fMBx523OCsgaSj02BQSKeiUtBwabRChbpPddhxUKY9LPoerfkqAJmOG+pNe2ykngp1ocopa4F0vkJ6koY7DtYPxevQkIeaRPslz07pXHGRceGBwN8nKVMxfn5No00iWyIe7AQNbKIG6sJO9jaWfr1cCSTyAqnz0qlweN2prJXDDg8I581uYUqIgEUvrMzXOVgbZWCzk75aayHJRDBVsK/YmY+FQSMKb4qfDrDWWyNeDB6o74onh669Y27ekt8P03QeED0Ah7ex0ns2wNGiYCdZa+Mbdul++hwDi3hTQhnFJq2wk9yTry1O35VgRxYnJ14nX49pXaX2Vb9bgMHbwacr8bo05CAn077Va1h4bNMJvyX9ZtD363sY0uJ2FPLbnD+xs9ZhiBfuj3OwBTSw2RqoBjuTHZm6knU3GnTSsBRk9Hodip+Gz2/k1cOOAxO1MFk3HgYe/1ZJ7vnxb6u4a8KAYDtyG07TUcnTczYw5bZsgiudv/x/ByBq6kQGdbqWYCdMo8hgnKwrccAjbx/5+Ml5DtdeoFK4+s5OH6iQe8rR31vsFd3DAQyfS4AiOWfL7aax7u6ZS2oRdHu+HtaLvuetDw1d7/Olw7zNFVjJ9J0Pu+e9bEM8OyWgzut+uIZYY0XtC6C7zxtEU01JWKZ9HX7e7BLwRC8CuHy2eavErlpfogEcN2aKoo9GcU3ebrfJJhVhZ70NuQ6ws77CsoNGWEfUpy4HeAswaGzGoNEGBZ11OIuG+uhs/mtaAa4w9bi+7XR+W6BssOG2agCwsynbRXQONnM24oa1Es0NA7DTbJs562LRdV1MvwKsDNbQ4u3U7LUMnklMYS2+HsbVVmCvTaxPwA5gx3sdeGCIphHaGjVgZxMbfFOeqe7D1GhbvbeHDdNQe1pNee1/ngBOTwkv+n5Iv3/dwFaw1XI1ANgB7HjYQeNbbuODvWFvaAAagAaWowHADmAHsFOc1llOA0RHBztDA9AANLB4DQB2ADuAHcAONAANQAPQwKg1ANgB7Ixa4HhiWvwTE2wMG0MD0MC6awCwA9gB7OCJDhqABqABaGDUGgDsbArsyBdiu96WmuNbKY1v0mRfvl3+U0xp64Rxff3Wvt3mPyJY6HjX+o2pmfWJN6bW/YkY+Vt+fweb17d5VdhJdzbXe1ulYfd39ReWVcFePGsoLN8VXV1TGAi6xLHxHxWceTDpabfSN1LoHMHV9D3zyZGXkt3aO9KVL9P6L/rGX/vtqq80vBbsCCDJl5PpqL+zkoerfGdlcl9KVl9vTvPd/3c37DTtmdb/Hg07jc/QnrJ7zqFPhuzSl49r5AtpjPppPdMh6hv13aCBerBDkJLtjRW2fSDY0fBTFiltG3HB3DhzAbDTUGFluynwmMmz0/JBOYYg9yn/IQMSgYHauNNCRLLVwoAylmCn0xaF9DkfKl+yRYMATxqe/rb37AMmqk4K+cjz3jPNmepX8tJSz73yKOnMcWzIf+tXjpeVN9wHAyU0MFoNVIOdfBdzCy57z9iOsQ/syM7peVpzdK5OvKvz7Lxsrp24mnywLd/wMN4bi/a4CmXWYcUPv2kg4f2Dhn1IrXH6imyn046m0GhwJq+H3QDUekoUzCSwY6FChWd7OcVhsp+T9sCEKR59T+V5UR2VhSvxvATvTQle9Dn9PwNJYTdyyVvIT6iridvQ0+c72XOpKV95mlLG1C7lTTFzeNJ5sv+X6znX4mQnPWchye/PlkBvFX02QFCog3thnzBVz33KjWtyLcAmsMm2aaAa7EzcTubivWFwUZ6eTtjh6auz5tzO1IwLdh4zuZueBo8ANGk4/y58+bX49MuDREiLppzuFeI2C9sObMV9sVqnsawnQm/2yZtgyuCewA6HZR6VMJCnkBGl9XBwK3t2yjuAT4qAYju39D5sF56esnlJw/m3lMkPss1emA9uhTIJ+IjXqC1fMexY0CnDlAPQBDia61c69eZ6TvVnp8tEUyn42N9+t3FvkwYI663P5vxZuwF2uutY6hpH2AoaSDVQD3a401O7m595NXKHMcDQWhz5i8JtvBsv2goaG+zEg4cbrLyXpDS1UO74S7CTnRsMOzF4pQLh38UFynbA9wM51b8GHAaI4Fl5kAADwUsUlz0izktTgJXhsJOmb7WVwgyXT92Pw/06I8q/hhfpQJphJ7VflG++TzlfAXb2zM0HHQP74DqmfLfVcxImkCixEtIAACAASURBVEt1yp69xFPYcP9MizsFAGqIS3YrxU/tid+iQRyhBWhgiAbqwY7z7FhgEeixnpo8Qy7cAU8KN+nvPP7wSl7dNNZjDH26I6f/gyclGWgYGpcIOzz4yFP8ELs2wI7AQQY+GhpsXD/V4+GiEuwIeEm6yqNUhJ0Wz46dfkunylpgJ4W8FFx0uMqXwI61SXq/tF5KmkmvSX531HOjPgl2Ui9SA7DoNKTNZuca4tL17GHyDwFJ/rld4JzYFUdoARoYpoFqsCPrbUIFWKCRaa1w3mYwAI2AkfL6iPdnNyxwTuMP/b1q2OEnZB40aKDST8r0W8MP2ad0rvzkO2QwKdtshoGTB54G2JEBXMPOTgoHhbh6MFOeFslz5CHx1zZMY/lwqzWKK4ulS7DTHl7Ka1oe1+gKnptyvvN8CezQ1JX1Lmk4dOlLuVqAQeyVHzvq2UMNXaf0WfLslM41eGaG6DO7VsqLY+Qlz+s20QfsBXtBA5kG6sKOWqMja3hkaipqoJEXKG+oAYTysCidARW6cthhgDlvdgtTQtTJ66fnfA2FtUNpMIivtZBk9GDVaaOyF6nbzikEJOtMIth5mH/2aIQBvH1At2nJNJe9tjS10w92NODo/6mMNu3gSUnD03xbu7TBTkjLxi3l29ZnfK84TQ1gWV14MBnSPrrq2UFOpk+rqbAw3qYTfoc8zKfPlvw5iEynQjO7dGo95BVxYQtoYLs0UA12Jju5hyaAThrW7rEZJ+w4N71amKwbGwMPv0lFr3mrJ2vn5fFvwrhrwmBjBwkbTtNRyZN5jwEgBqa+DcAOznoqKlpQm8KO8+7oAcuChlrXI14hyjPDkQu79SFDiU9fh8lU1YMAGVm6MrXm4UbdU4VRfeRxQ7qhvmIwCeftQmpvk7t75tKtADt52gH+tGfHpif2ze9fggqdh6b/u+qZw4v6FIh2nyCIppqSsFn12eqtsvBbXj/VV6+4rkkXOA9tbIMGKsLOegtm9Z6ddbaPHbDCOqI+ebWDsXhftqGxrEUZW6Ggq95mqeeuNOuEtwOcA79kkfta1EePhwnks45GYEfYcR4NAHY2ZbuIRXeqDeswmsUF2Gm2zaI6pQqwMrieF1WWkG6bx8l7wwA62RqE5esv1BnuDVtsmgYAO4Ad34nyoBNNUbQ1aMDOshs71U+Yvmyrm/awYfXcntb8NiCA09O2i74f0p+/zmBD2HDzNADYAex42EED3rwGjDpDnUED0AA00K0BwA5gB7Cz6ClCpA+NQQPQADSwUg0AdgA7KxUgnki6n0j+//bO7+WuIsv7/87hQDMwwpkODmTE7gl0YxJwwOkXXhwc8e0eEOJNiygZ5iJ5Fem2wYthQEOu3mg6jd4KyUUkJqC3jkgwt4KjguQmUWjqzVpVq2qtVbX3+bXPs/dzzvfi4Tx71+9V373rs1fV3gUbwUbQADQADWynAcAOYAewgycuaAAagAaggb3WAGAHsLPXAsfT0HZPQ7Af7AcNQAP7oAHADmAHsIMnOmgAGoAGoIG91gBg57jADn9M7nYIy14N3+ijc/QV5sbrv/KZfv5Ksf7ar37SSV+31V8/pptG9QVlnWbM/1fbYmKYJxn3ev5K9hzTNih7mH6HHWFHaGBqGhgUdnibh7yJ5/WgNwH1YQ+uXQ9lO4lF4I1EVdoHA24CSkY/9l9Q3gnsEOTEHc+vPUuwU46NUHmQBuwYm6z0FOhgR9L02vPob5KP3X01nP3pXDhxUcp+Ipz4/tVw8s+LMPvz8+HsT8+Hx6Tu9OvO/eyTc+Hs3ac6ngpVXjoP/N9hL+kD/K5/vcFmsFm3BoaDnd9eCg+qjUDLHlgEOxp+fKcQ7Gj48eHbHh972Fl1cFjbs6P31vK7ryfhbDI4w7MTZL+rakuNTey5av9vEI9g59T358KpT55IA7ACFAc2fB26c4Cd7hvstvctpIdtoYFhNDAY7NSbd74c/lt5Zw4Xdv4t3HnxtvvybQQM/TVcuxFo9LaIyHWYTiPhM94CIG3SyBsxNqakOgdBDTu23Jx/x+CcP+VP01z+c/4Jdt679XWQjTHzRp65LrLBY9qYM02FUb7f3roZvpDpM9n4k8sgb8nX4eNbn8d8H53jHcIf3g8VVORy9MWSprGu3gzfyiairSk4CTP5prIv6Hp7j5cOi+2q6tVhT4EjsVdl02Z7dNs2+59h55NnwsnswTlq2Ek28xraUXuzrpE/vEvQwMFoYDDYmZ3+Q/ifa2XqiqellKfncGHn70K99w99Ir+AhQ/n48Yn9JubJbInp+Q1W8uzU6atNp/GSjuF+4HKAMoizHiA1zt4xwGuBiDZeZzixmmghwQjGRD8ubirOIOXr0PzRiYwIpASjwuQvB++0PlwOyRuKjvvsB6PSxvaxyXvBCO5LRZOGNpy2T4vG3fIATvCzhOBPDQ8dTUH7AxpX+S1O+3CtrDtqhoYDnZ4YPlNuHn5eqD1OA/eetkQI3t+9JocF+7X7PRNea3aOB1v3GksCzfsickLjVubO0Zvi9+FvAU71bm1YEcuFCqvxxvUMTiLfZugkTw7FzNw2MGb03iPSopb8otpGBZyHVrnOoArly3tpF+CGw1dC/YMFWDRcX18VXZV10dxO9q8GuxQvQSqUh2q/HzdyrH2/gX27pGnT0Fw0xYxvcDO7OIz4dT3z4SfHTnslHaIpvALm0AD0MCQGhgOdpJnJ667Eei5FK40b7Ip3AFPaRhNgRUvUTm/eeePCzuLoKGE/i8g40CI7XXUsLPErhk02vEKnKjwxkBNnguBCuvFUOnmGlwUXOQ6tM7pNDavWjvLYUemxfJ0UoYjVfbQsMPtS9N5agqNvVrNa2hZO1cPz7AzX4TH7tJC5aP27Kxe17o/kRY2gQaggeUaGAx22DNj4CUCTZeHpl7jYytL+XWl3aRjx4Yd9ua8+G54Y05wo70oLc9O65wFJrGBhig+t5Fnx9pe8s6/GTTa8VaDHQsKzTQVQKg0uQ6tc8PBDtfLeFg0HKmyq7o+sk0FeHV8tmlui7Jn69wakDOIZ4fKo8XHd58pb2ORtyev5Un1pTjsAYrHWKCs+nGNPsvXF9KYWQDYBXrahQaGhR21RkfW8DTfsDJeoEbH0ptdanHzEA0fHXYEcp686hYrR4gJDELRFn4Nj7S/Apv5wq0HipAUDEw17LvuzXXJQNwEFz/w07GGCM6zvai45KdgIdehdW5g2FHTa9HLI9Nequxkw1LXel2SeIhWm8aKeR/VomTRFP1qz86Mp7DOhVPy6vn8qXDyp/QaOrc5en3Km1sLXuuz3avnBJT3w1F4sXS78f8A94Z17yWID7AbSQODwc5sLlNXac2O+Y6ODyuvpMcbTpy24rU+vK6na/pr84tzfNhJYNKxjsI+mdeen7IOI751Vd7KilNeMZzWaHjP0eY2i14OP7Ui60rS4KynXOh/WWDLcKPTSjpVnwQ8ebooQUYBCAUXRwQ7cU1PqXd8K2xF2JEpuGQTmrIj4BHY6bcn2aW2qUz77XJgtrCT4EUDDnt36Fs86c99U4c9OxImvzlOhKOcNoXHhdCiBWm32FnO43eX/Y68oa9D0sCAsDNt4UwBdg5JWGjrtK+HqfUPe8GUR21q9UN9oGdo4HhrALBzXLaLGMn1hwv8eF/gk+8/8QACdDC9gXscNLBDDQB2ADt7dYHJOpk8NWam2RpTaTu8uCYPGmj7XmkfesODCTTQrQHADmAHN3wM+tAANAANQAN7rQHADmBnrwWOJ53uJx3YBraBBqCBQ9EAYAewA9jBEx00AA1AA9DAXmsAsAPY2WuBH8pTC9qJJ3RoABqABro1ANgB7AB28EQHDUAD0AA0sNcaAOwAdvZa4HjS6X7SgW1gG2gAGjgUDQB2JgA7vD1E3gX9KC+++Jl++cLvoYh+t+3UX7S+HcIo/XqUGtrfssxXzcfoxyevhvhldP1F9X57872Edr1X28/sVu/99UHZsM9UNDAo7PDmnrzdQ9wyQm/k6cNoa4hq36y0Z1bcNsJvKbGdaKb8BeW9hB35WNyuvnOTt4/YThfDX4jtHevjnlOvmg00edNNvS0DudFlawa10eYs7U9l959K2zDkbRmW2EHyle0cfqLdzSlNezsH2t4h7n/VCF+1TJ4WoL21pKy6jrRVhd9KQvbdimE6bayL2WrCtUvSNrewoLazXWM+EjdqoHUu1nec67O9GTDV9cwL34Ubb/+Y/u6Gc43pl9Y+esNrve5PlAGbTFUDw8EObd5ZbQRagIVgR8NPZZAdbP6pywDstC7CI/Ds+A1AGzdm3U8r/3/sYCcO+qe+fz48lmzw2F294WbsHxqkT33yVDjxvR7kCwTJQM+DuQGiVv/KOb+Zp5x3v7Sbud/hPMGQlCvgZUHB5WP6eDnsdOXFe3Z9T/Z4Ik21Otjh+upNSmlfr+cTxEmdWm1vgU3rXMxjFNhZvBvutzb0ffpuuPF2AZxzv/8x3Lh4J5wxNl+EGXmFxvBG+XrgGMsEJqKBwWCHPTdvvaw6ljb3XBV2aKPQEnflAW8NI44PO256Q93I5Gaq3eZfPSk3a/qV3czjJqDmJpZviirOyi5sBzuyMaf6dL/dvFJ9gbgFMaueSxtmykaZ8rVjO52WdsIWz1Cukzsv4Q/1JpKysWTa0DOnJVtS+s/De9JWSm/CKY5Lr3dr92Gy8WnWYpdnhwbd58OJT86FCA5PhZN3n2rsOB4H7wg9MshHLWTAYW+Gg6FcfoxrrqEmxKwazwFGgp8CII18TF22hJ1PnmG7RUDUdemGE9P2atd2qm8rbetcbJtcnzbfZe3eMjxf1zqfP4bXL/4YPnjhj+U+e/JO+ODt78LrJ3W8JbCTtH8Um8weqc2M7pw9EFY0c6C2GAx2ZmkKSrw3V966bjw9vZ4dTnsp3Hztg5B3PtdeogE6Z1zYSaDT8aTFN9NXbgfZyZyPFbBce1bP2Tv3Nt8UCYJox3O6wF14r+0U7KQboAEOBy8MPhkMVNpUBm/V4Ad/l4fc/ASi5IZr817wbuESJmnML9dXwZdq58Vbn4ePL8jNLoJLyUtgSdL6diTQ8e1ottHnTWX2w85jBCo0DfTn5xl6zI7jDDHJ80OAUnluopeCp33Wnkqi6aLiVTK2FNs1oUgDRu1hauYj+fHvtrDzRCDIi4Co6rIy8EWbFc8U9VELbFrnooamAzt/Ce8YsKHjOJ31ztOi9/Tb59kB7Bz8wL/8unV6Mtf08QwbDnbYGOShiet1HhgvzyJUa3Z0OE9hXVfTXCkfHWdLY48KO7zQUAOLFUt1M20+1ZU0Zj4+wY72BJnwXrulgf7WzfDtw/vBgM6jdAQv9hzFLx4UBpQMBTYsX0x9sJPTLsLMwcvSXbBd/Fxeo73L6kllZRjqqG/Mn9ookJT6g+JnAKRzHbCTQYYG1efDybsRPDTssOcmQ0wbEjhOzxqYPjvENTBxjYwd/FNbemCnrKtZw6PEfdFuh9RT10nKkLpl25Dt1FobDjewE0Elpvf164YdKU//tjxW1fXZ0Ji0h345Pi0Sdn/6GtXxm//TPUM98MQ4AjvRw0PrdghyaCrLeHuofkvuIc0yl7QLaco9GLY4frYYDnaSZycuOhbouRSuNC8gBzN+vQ+laZ1r5rWa0ceEHb75VTeuUu/qZupvVAxL9uYpXqDtbmoRduI0khvE/XRNa7pIAwcN+hpepK864MECSA07firJQlcrfrFnBKc0hSX1znWroUzDjvcwmZtaeiKWabf8uxbs0LqSc0EWG9P/cYCNA7YM9FRuHuzFljzApwW9lddHtV/id/0y1MgCZJWuB3Zivbq9H8ZOptzlsNMCDN9+Wt904qKykYEdaUOrrG7YseV2t626Pk37pOyBftPDi5mqzuW1PDkRfCrPDqXpzWug+ua6Ib/uawC2mYJtBoMdnrYynpgINDKt5Rtr1vikaSwDRnsEO7xYcFPYSTcs/VRoPDcejNa6+UTYIZCoPSlxiqaCDJN/iUPpm3E3hh11g0iQYfLXoGXqFNuUPTVpfVABsX7YmVWeGl8PD4UqnOvR49lpAEoGHw0y+Y0peXuIyoiDMUNSimsHa1+P/mP2qGQvUoq7FHYWPP22dDrM9EcLQErdKqBTaU0Y1e3uM+HE97IgOUKMtUGrrKOHnd15dhprdubi7Sk25Xtt0zPk4ihb+/szjmGrfdPAsLCj19kYT48TThXmwcgfu/QbXKRjenZkHU32xrj6V0+OGmD4f1mPkxYeqvU9Q3h2IkTUa1XYy+GnbVzdIxx8Hb413g3VX0PADi8q9jBVQM1elO68eGNW9OzEBcxqWsu0t7aRLZvavSHs0GDuYUh7LxhEyhRNnM5asgbH1F31SVq0a0GhC2SUN4Xz6/aA1LagMlsAUupigMbV14ZRufbttWiDYpN2WUcPO207lDavFK7vAcou8bXzsiCZj9d9G6u6Jtasm6rPSm1BfKwRmoAGBoOd2TxNTanv7JTv6Piw1ptX9PZWWu9zTa/fGeZCHBd2qA3qbSmeyy9reHphZ74I+i0tmse/8+ztvJh5ONihOkZQeKgAJwKPmhKqoCam0Z4UvgEy5Kh0PJ1UvCL901hSj5K+yp8uHlOGW0sk01cPPw8f3/paTbFR3iUu1VVPY8Wbty+/1NtPr9FUlq1bB+y0YGZeprTswC6aT2Bx73+HU/m7NzasAqTGTSVCgf2eTQU6lI6BygOUhx2JpyFD6tT6jbCh18WcVWuOqN02rEyveZtIO/RUn3yrqOTh67VfsEP6NN/ZaYEO9SV5djpeiGhd51H3rf7DOdhmPzQwIOxM2yDjw8607bP5BV3Dw+Z57YONOmCnASGHbafj09fVw8hR9GWHZ2dlzfTCzioeyuPTPyvb5Cj6DWVM1osF2JnAdhHH+WLltT55igg3yM5pLNwEJ3sTXHb9jQI77AlW09dr6ses61Nps6cW1+yx1eMyvSK8PQ4BdgA7G130DDk0VVRNa7WFdjgXYPTs5NeOO6cShrNTayqoTOv4aanhys1bW+gF1er/5lSZGninrgkzfXwE/VjZI7+FWaa8qzjOngxmbpp8WRqED3hNuP6AbadjW8AOYGcj2MFFPJ2LGH2BvoAGoAFooF8DgB3ADmAHT2PQADQADUADe60BwA5gZ68Fjqed/qcd2Af2gQaggUPQAGAHsAPYwRMdNAANQAPQwF5rALAD2NlrgR/CEwvaiCdzaAAagAb6NQDYAewAdvBEBw1AA9AANLDXGgDsAHb2WOD2S8j2S8f9TwF4SoJ9oAFoABrYHw0MCju8uWfHlg8+7MG16yFvJ0Gbfqp0+X+zseh2Rp/8F5RH27hvx1/8Pf9pOP/NvXB6o6emP4Xn7v01vHR5s77HBw83sxtu8LAbNAAN7JsGhoMdv0s5b/ZZ9sAi2OnaAb026r5tBLrChbOvsHP5Xnjz3qfh8Y1g58Pw0jc/hOfOr2C/Kv+yI3utr03yQxrYERqABqCB46qBwWCHPTfGE0Mbe24IOwxKl8KVagDbXGije3by11BvB/q6bt4BnffAiefyV3fNF1CL56V80VV9Rr6CJNpwVIWTDTvKLvnZ8nPdVrD/4x/9EN785q/l77MPeVqsOi9xUni8YAhmVNpv/hrOf/SnMGNvkD0fy1jHQxSnsOKO7l43dnqr9RXo+Fl9u2Hocb3IUW/f/ziGJqCBQ9PAYLAzY0Apu5Vfeet6eHD5D+FCGjDX8exQ2tW9QKuJdlzYaQCIB4kKWqRdZfsBgRCGFPl8fZXOlcWg4+DHlF1gam3xk9dmyRTV6c8SwJgyFxloyhRVY8pqE6/QhZvh27zjedk1Xe/kXu9yLrYuv4CdYou1deH7Gsd7vC4OOsH1cTw0MBzs8A0tTj/xmhvj5VmEas2OC8+C2YFXh/IeH3aUN6d186+gRQSUYEfghtLquPp/zlfDTkwrkJRtbMrfJexEz00BGmnTIhAEvam9POzNsVNWVRxT75JXu13dnh1ey4M9vTAAr6WnZXpDePs6hF1gl2loYDjYSZ6duOhYoKdrKiqFN4CHPUKN89sKZlzYWYSZma5qbOxXQYsIZAmMVOk07ND/t8NXT0perd8l+S8ZEPR0VQU1nYuTGxBUeXEanp4ldbEa6Yad2Tyu53mYPEDtqa6WrXDO2hj2gD2gAWjgeGhgMNipIaV/kXG9xmcR4lRYWeczpIhGhx01UMediR3wVNAiAloCI1U6DTtL0nKdVokjden5bXhmZhXASHq/8DiCjfH0zH0cSbvqbx/sqDzStBeAR9lEaXXIaxB5wcbQADQwlgaGhR21RkfW8OTXy/UN1HiBSufXwFTCtjXQlGAnLhh2sMOen9bamiUwQrDziuQV4wa1QLkJVrov5otg1gC5sJXt3vLidK7psZ4dnq6ihcp6WothZ/PXzmfzFWGnI15cs3M/AIKGuwZX1tKmGkQ6TE1CA9BAhwYGg53ZXKaurudv5hTQ8WEN7w1/a6dxvqPi6944R4UdBhL9xlMLahYhgonEswDTNxWl36r66knt2YkDlc23tXYoTnfJ22D9a3zS4Mcgo9+YsuttYv8kj01644rftEr9qae/6HxrIbOOs/7r612wE8/LFBb9Nj82ePXzwHG+fB83j4GuwXWvWcQHaEID0MBQGhgQdqbdKaPCDgaL4wcMmN46fn2G6wx9Bg1AAx0aAOxguwhcHObiKIuXMYU17QeYoZ74kA/6GRrYfw0AdgA7gB0DO/t/0ePGjj6GBqCBQ9MAYAewA9gB7EAD0AA0AA3stQYAO4CdvRb4oT29oL14YocGoAFooNYAYAewA9jBEx00AA1AA9DAXmsAsAPY2WuB4wmnfsKBTWATaAAaODQNAHYAO4AdPNFBA9AANAAN7LUGADsTgR3+gJ75gvB4Tx6tD/zt7ikgfXjw3qfhcdxsJnGzyV+0po9B7rRf4mv+k3jFn7+r9Hl47wA0uO3XwSV9/DDnYdhsd/e/8e7zh9amQWHH72z+P6/9Jt+8fRjtjF6+sCz7YpWvLz/QW08McAMa96OC9kvCb6YvCvNvApyjBYy+CyzWNW7qGbd10Ns4yFeNq00/N+6jPtjRdemr87phqV2qH/TXnbe/Ceyq3oswa23LkWwvfWP0tSascB5rpllqL/oadXOX+cOFnfe+7Phy98bXUbkGluUtsLIRZDIUfh0+vlDKW9r/A7QJZcDe22pgONih7R40oPD+V2X7B4IdDT+24i+H/75W4srWE93x1+/4cWFH1be5OeYOB8e1bzRqA04eWPXT/YfhpXs/hPPftLaGUG1cu8yutKoug+XZAIbOPby66rXs/I7qTTZo6sfWhz0zG3kJIwQOB7KpXoCd/NAn971lQCLxNvndZd6zzr60Gtyk3kgDG+5SA4PBTr2LuQWYXthhMLoUrqgBjTYF3UfYaQ9EaXC8/Gk4L94G/XRNAxwNXgIfFMcNZr1TDzyYd+9jVXsE7oXT80Wg8+c/+jS89I0c3wvPcR3jMQvT5V0GShnw4wAavQ0qXdrok8/rtpIGdDvFHvyr0yePkITrPCg9H6uydbgHBm5DT97O1pW9JHyleqs6pbpnr1JPvasypd1Sdr522uAsnkOtk9JX6SbL9dd2UDffzn5WcXId0rm05Ybeh8xOfYhnR+9XpqZF8tSSCnceIvFS2HylTirdw/vhod/nTPY/ozD+K2ULMOj8rSfE5l3tr+bylnCdn7GLqZvN29RbYEPbNqVdnrfOt/bOUHqqJ7Vd6mbbvAhchusDGaB8+T6tbM5r2uM1g+MKjMW++JXrerPfwWBHdjkXQOEdzJWnpxd2ZBNRib+DTUGn4dlpD0RlcJeBRkAhdioPdOxRSeE8KIl3JQ36edCLxzKAxkFS8hWQKMc8+HWAAIW9dJnyo/gfhpeojDwgRxh6M4FQAR9dRwIsW08ZYB//6FMGqth2ieNE7KEk3wgjMEgbZ3Pb5uj90B6oGF/K5jZneyX4cMclb5uW89ZtznVSde+qN/eb3sk91lvqtazeZGOqe6mbKjPXg+rr7RnLIbCUtKyL1OZOkEq6qDRUwWGrHuqcDNC5jhImW3PIwBuPBQxmeUCX8DhY50GUgaIAih+I3/uyhMlAm9Ny3pLvIsSySvw84GuQyIO8q+fc1YuPVd5VuxcMFLmdLry33hmiUl19Ox7lJaDWPThSfev6CaxIvbQ9sz0yGEYgkrjs8XlY7BePfRkJtgzYiRbw291fsM0QthkOdviCVbubv/WyIVT2/FxTa3JcODWmxLFeniEaOg3YaQ1EAg16gLLxeHDWA6yCHR6INKwkj0kcQN1Anbw1edGpykdsXECA0kZwOf3ZD+Glz+6F586naRQeJG0dY3p1btnALjd4jlfgS+pBv6Uu9mLXA7XE1+fi4OztKZBRBn5Z25Jho1Wmt9EKA31XvavzLu/+epMN6v6U9uffpj1TmzPQJc2pY0qvbZjz4zK1LaUe/pzto5L+0fklsJMBZJ48BzIYJtjR4Xogp/91WAQaP8CWevm0eaAmLXJZZbDmwT3DjQunuDrM1zvBj8lf9J5+dV2MrVw8CjNxGXZ0G8U71m5nO+8e2BHbUz2cTSgvDUAlbw9/sS6m3o12lfSl7jgHW+xKA8PBDk9FyaJjgZ4uaEnhGXjssUCPWcC85cUyCdhpDkSNQd3Fo0FSnsi9EHgAlSkNPy3SGJh1Xjy4GVBSngaqg36yV14ArkvLe6Hr7cN1mOrLug5ysau6qPjixdGAQjap2uUG8mI3BWQVPNQgREDky4pQEqcFfVhX/Zqg4mzUhg2xR+2VK20qcdr21G2muG3bahvmvF0d+XxHX+Y0pr8elbcV7BQAsfnHAVamW8qvAoHsBSnTMgIg1UDsBvYqXLepkS+XX4GClFu3Yd38pd7dtiwa6M2b27Eb2LHg6SBN2w//G0eA1XXpR5wf1haDwQ5PW2V4oUpGgJFpLd9xDDQSGuwx1gAAIABJREFUn6etLBhxuExrDXBxTAF22gNRPfDYQa/vab5Oa+zsByoepMrgbctJXps0BVKFpT6gAZEG+FZbdBqKZ9YV+bqo/Nog5wdoEX7LHjputEk7zxoYbD11PlJezy/b03s4uvLw52M9i42W1Jvs1WFD3ee2PanulE57Bju9NUUbkueyfpZ4vb87hB0/wOZ6MLxYz4+GAP0/p1kXdpxnJ5fbuFfF6SELPFX5km5JvacMOxnIuC1tb0+fnRDWc68RfeB3Y1AcFnY0nBhPj+tEH1at0bGeniEuginATnMgagw8FC8P1kueott5tgY5GmytN8IMZAmEZI2NqUO+wGhAToO7H0D5WAb+OHBrr4cGodKfdoA//ZH+1k6sr84jprNpxEtRoMFDhdOeBwbTDp+3S5vtkM43+6ar3vY89xv1R/ZALak3lW3q2qpbu/6V7Vv1bp1rlWn6uVWHxjkewJXHJduxnoJhMBAPiQOQoptYRgsichxfZvLGyIBsp2PSWhK15qQTRrjuMb7klcvM7XI24LIt7NjyVfwl9V4FdjrzzvUb2rOTpreU/bie+ljZrf0ZAmWDXE+cW6ot2Gpl+BkMdsSTQ9/Pkb8yDZXgJYfp18yjoGXqStI+EK/PQJ05PuzEgagavKtBxsXzg3NljziIyvoTvQg1gwBDDoGIH1B12nvhdK6Lj5duOhwuQJOm3xJALfMctOFJ1itZCJMLnAdpyV9Pt3E9Yhrb3tpzI3nJbzXwe9h0eZtpLB7oS7kChpK3/HbVW58nmDU2ybbvu8FHbUhfZyBO03FyXn5Fa6Yc0k9LU61zSWsZzLgv2uurpO1dvxFM/LTOdrBDZdl875vv+RCw5Omtb2+Gj823bfQ0GIEYAUABkn7YoT4SQCplZC9TNc3VDXq5fgJ4j2zeW+9OL5nWjW6begutqhfVvdSNbanqsfqanVi27YuSb9GE1KsVpuuP/4vNYIuhbDEg7Ey7U8aHnWnbZyhBIZ/j2c81BB7PdkB/0+43Brk1pgDRn9Puz+PUP4CdiWwXcZxEg7ru2w0oevjEE4T+3bf+nUB7xKsE0Fl52gXX4bC6BewAdnDxVVODw15kk71pqSm7MiV2IG0/1D5Hu3G/O1ANAHYAO7j4D/TinyyEoT9wTUID0MDAGgDsAHZwUQ18UQEi4B2CBqABaGBaGgDsAHYAO4AdaAAagAaggb3WAGAHsLPXAsfT1bSertAf6A9oABoYQwOAHcAOYAdPdNAANAANQAN7rQHADmBnrwU+xhMEysSTKzQADUAD09IAYGcCsPPG2RshPHthctBRfVF1tCef+ku7e30jkW+SPLRfuKU2y1dq89d6pU94mwH5mm/5EvBGdlqyTYPPU3/xd+UtFKTe6/y26vXk1RBeuZ3+boQ7i+FusNeelXxvj3N95rZdDddWtBPfS8geL74b3lgxje9PHA+nIdhyOrYcFHb8lg96E1AfRttClO0kFmGW9suS7SJM2AAX7ZS/oDwu7HSDxMHCTmtQHUCDfONb+rn/uA1BBTOp/E7YkfoNUfcN81i+xcKWN75WvQgIegf2v4R33v4x3Eh/7zxd1+Hc72N4K4z6bJzr80L46pXb4asn6/qeeeG73J4bb98N56Tv1S+B2v2zv5vcAxQG/7o/YZOjsclwsEObeVYbgZY9sAh2NPzYDn45/LeGHwafktbG3cwwgJ0uuwF2Kn21BlU1kFTx1wlbBjvblr1temrLhnlMDnZO3gkfvP1j6IIY7sen74YbF++Gdy52xxsFdhbvhvuvNDw6VF8FOAxqF++EM16DBIET9BZvde34NuIYMLuGBgaDHfbcmM07CWAKsPTBDqfVoDRfhCtvXe+Bo66Bu/v8+LDzu3DnReUWVzcyuZlqt7l9ootPedldr29i+aao4vQ+6RYb6emHvCHhw/tBpiLEs6PjaY+DDG7ibaA8dHjc+VimVurN/3Q6vSFhvCH2bLSYB2MVx3yGXjYcTGXrzQ354lDpaKoop3XneRrJTyW5vHNasmsBx2Kz1G6us9hC/7opJ57CcueqOte2zINItk3p55Y9pY9zOjN1RvXTdXBtruwZyxI95DzzjcjZVWxGZX55M3z8bbLx1ZvhW9Mfj/LtrdcizHo8OwQCvaAzj16fd57+Y3j9WMBOrOcHL/yxDHIMdN+F10+6/u6DnaTFSgO5v1xeOF/sDVscW1sMBjsyDSXeG4IV7elZCjsGlBahhqftLsBxYSeBjoYUddEw7LxS3M58rIDl2rP6Cc+5txl2CKJkvYILV+XUgxDZtAzQPlxgRG6KfCwD1aN884CeBj8TzjdUNSj7QfzCzfDFrTfzhWPSpjpJuVUdMzhI/nEwFdDieuUBObav5BXrrY99u/s8GxdvfR4+viBa9HkXKJD8bV0epSM7KBtK2WJrDZ38f26HlEltlXbLOfXbhB1fT2uv2F6Vp8vDtsHnVcqmeNJuaZfsDl6ff5QugQz1G5fBgKXa5zXk6sVldMIOgcx34fUXyBMi01h2yoe9Ir//S5jNjwvspDZlsImwRu2roA6wk+8tRYtFqzh3eLYYDnZ4UP1NuHn5euB1Ny14uZbC6FeH+2krWb+j4ywdtPs7b1TYoRuP8uT4C008O/l89ta022Tm4xPsaE+QCV9qtzh4CSjkOshiWD3YusGGByg9cKtwGrztANddDpep0tZA4NJyXOtFKgMtDZbaK/HIhg4wqnp7G+m6+DB3zJCSbRTr+TAf12X7umh78/8eCl15ER4UmPjwVt3pnO4n17fFdklvJo/l9pQ2VPlIOa5sia9tUdIW2CnnWvVK57pgJ01h3WCYiXHNlA+HC/wMCzvy8JI9sWkBtb5Gsw18/8lxs10CO7G+AjnULuPtoTyW3EOWli/1wC+gaU80MBzsJECJC4sFei6FK01DpXAFM+zJERi6/IdwpXeNT7rRNfNuh40JO95T4280S2GHYUlPgd0uiw+3vqk5kFA2tQN5vZajGoxUWgqrvBRmmiuBQZ4qUlMnDk7anh0HNFI2D9SNss2Aa8uuQM8M9k5Prfwz3HTbMvd51TaX/y5gh/Ns2CTVu+pH3f5We/1UU7J9lc+j86yDbJ9GW1O/lLRDwo7ATCo3A46HG39s61ldn6K1Xfymh5f2epuWJ6en7r152TZmfe6iTcgTwDQBDQwGOzxtpeBlNo9AI9Na/mJaNk1F+Q35RtaYsNO3roDsUt1MNcCkG5Z+KjSeGx13I0F1D9Dbwo717NibKw+CGkD0AFsBgaujjuvb3Bfm49JxGswN8HTmQQOxnaqxNnL1bJVXtc3ahb0d3jNl8ikw4K8pPm7VfUmZBTRSXXQe+n9TD1fvR2FVPuLZGQN2eD2OW8sisCNenzy9JdNcP4YbjcW+1fW5xA4cP78OXx5S9DXc7Dudb9OzE8HGenHE2+P6o5nexdHl4X8AyZ5rYFjY0YuMjafHXWR9YWlxspnmGqATRoWdeVxH0/UqaHUz1QDD/8t6nLQgU63vGcJdzeDRGJDsQC5gUDwqrcEt38TZm9A93WLLjJCQF8XyAFvSclztFeodgFNejfbkuhk9RYAxsDNvnSMNu/Ncj/uhTFutADuubVWd2G7FxlU416HYpgpv2ibWuws+uZ8zeMa4uS/S+qnSRnctK1s29ZBsZO2b8lAQVtJS+bF9/fVKefQM6mVNTozrj4vterwjrYcR1eaSR7ddNoqj7wGqvPjaeYE4Pm4AGj9gdawRFMBfpU83qruqL9IPrAvYdmMoHQx2xJMj38mx39GRaS1Zs1Pe0ooXQ3z1XNJ2eYO2uXDGhR0SvHpbip/6yqLjXtiZL4J+S4u+KXJHf0Oj46a4nq1kgItTHTIobgU7dFHywK2nT9QgLqCQprG+uEVv4pRwLjuFUX1oMMwDZnNA1zcVgadStrRJgEVPsZUwlYepe4ELXS8Cgo9vfb0e7Ii3I0/flTZzn3XBjqmPtKurXhKu87Z9TO3P9hSg4TpRnhRXp13PnpS3sanr67xAm9rUM40l05exr1r16n8bSxYe5wXKav2OvT6OD+xQvc13dlqgQ9ceQWAX7CRoL0CrdI/BdOPB1GoKNp2aPQaEnWl37viwM237TE2YqA/0spIGejw7K6VfYXCvHkZWSLN12ds+xPTCzrreT2hx6/48Cs2gjF5QBexMYLsIXEi4mUIDG2pgX2GHPcFq+nrNgcys61Nps2dy5WneDftFlQltw4ZT0ABgB7DTS8NTECnqgJtlpwYIdvJi4M3hoJW/mT7unBLaYd/ktpUp71Y99bmyOHr1NDo9/t9hfwIARx1rADuAnVEFiJsrbq7QADQADUADu9YAYAewA9jBExc0AA1AA9DAXmsAsAPY2WuB7/ppAfnjiRQagAaggelrALAD2AHs4IkOGoAGoAFoYK81ANgB7Oy1wPHENf0nLvQR+ggagAZ2rQHADmAHsIMnOmgAGoAGoIG91gBgB7CztcCvPTvsK7+7Jnzkj6dIaAAagAYOSwODwo7Zufza9VBv+2C3hbAbfdqwOu12HTP6F5TPfxrOf/PX8Kb5uxdO89PEn8Jz9yhMjqmtH4aXvvkhPHe+tPv0Zzq9Crt8z+Wr8pJyP/uwQA3Fv/dpeNyUrfP+a3jpcim366ZA3yGhzQ3fOHs13FnEbS3W2uyw60nq4jPh1E+vhrN3nyp1/vPz4ez3z4SfzZ8IJ75/NZz65IkSVp17Kpz86Vw4cbHdhp99cs7m3VUPnFc2btuySxs4D3tBA9DAlDQwHOz89lJ4UG0EqvbA6t380+2Q3ht3MwGNDjsGMHwbCGwINhTAMKQI/KRwDSwEQ+Z4ER7/6AcFMakMAaEMNyleTltD1ToC1R9e69rodJ38OC7Dzrlw6vvnw2MCHIAdgIdoAb/QAjQADaypgcFgh706b72sOoA8NQV2rrx1PVhPjhrwCZSuXQpXVOUp/pA7n48NOwwiGTBU26nNBDb3Pg3PffbXcP6jP0UbZjhKXp+utMpm5PnJ6dN5Kvf8R58aL5GJZ6DK1Uvl3QUsGnYqr47ZvLJsWtmVVz7PsPN8OPHJueLBOWLYiZ/VX6POK9gqtw9x1X1ifc3BjrAZNAANrKuBwWBnlrwxMv3EsJI9PQl8XiOokZ3PC9x4UMrTYTn99h07NuwYwHCDnYCQ/FIn5v8ZRpTHx6UtHR6hyE4/yTn5JTvq/xdhlqFqfRv3TmPxTtcKFrp28261J8HOY/OnwkmeulqEGWAHgNDSCs5BF9AANLCCBoaDHS4sTkcx0GgvTwIh7anRMJRhhz081+N0GKcpQFQG9fUHZUo7LuxEwGiv11mEDELKy0LnCFwYevIUlEx3qTU5uZNb01HlXIYnXgsk02Mpf7OOaLX1Oro/WguUyTPy7a031UUYd1r+4mrsP+0RqvY2yrCzCI/dfTWc/PPRw45uH/7f7JqD3WA3aAAamIoGhoMds85GoCfBSgtc1LmmJ8evAcqD+mbiGRV2er0z2tMSYealywVSCHredFNYFoCSPXhtToEYFpiCJ/bg0AJo48mJZfupryHE+d6X98PDh/WfwE5vGQp2ZvQ/LVQ+Ys9Ob/221CLy3uwaht1gN2gAGthUA4PBTr3GRi86tut3uLIKdmaNNTvZ2zPQwDIq7BjA8GItYEN2YS/PZ/fC+fRmVgt2OI6s7Un26QQg4xX6Ibz02Q8KnmzZm4qolY5gx3p2bLtX9ezM+E2rc+HEJ/I2VvT2tN7GYg8Q2wNvY7X6BOesBmEP2AMaOBwNDAs7eo2N8fQsgoche5xeO89TX/G4c0HzBgA0JuyUKaSGsMj7koEkraGhaSU5xx4bPbWkPUElvxYUUbnaa8NxvlGLmLXnZwOb9t4oeI2OWrOzTv7as0Pp/vx8OPX9ufTq+SLwq+OylieFn/1JvblFa322fPU8LlC+H1byRK3TNsRVU5tFv71ags1gM2gAGthSA4PBzmwuU1eyANm/feXCM9jIDS8BT1rAPCTo0I10TNgRyNBrdmQhcQVCDCB26orjmHU1smC5tRZIYKaGIslHyo5TW/b7On7KbKtByLyNRVNan4f3VhGshx2Gl1cz7FCdaC3PWfoWD//5b+oQ7EiY/JY4DEs+XH/Th+oodf/yfdxkVukzxIFOoAFoYMIaGBB2BFqm+Tsm7GwFDBMWz163i98mg2dnr/sY1xYGZ2jgYDQA2MF2EQcj9tUG7vjWGC2uxhTWNB9cVutH1B12ggaggaIBwA5gB7CDpztoABqABqCBvdYAYAews9cCx5NNebKBLWALaAAaOFQNAHYAO4AdPNFBA9AANAAN7LUGADuAnb0W+KE+xaDdeIKHBqABaKBoALAD2AHs4IkOGoAGoAFoYK81ANgB7Oy1wPFkU55sYAvYAhqABg5VA4AdwA5gB0900AA0AA1AA3utAcDOsYCd3e1htTbl73KLiUFuNnZ39bXbN0gd5OlxSnWROuF3XE3A/rA/NDCGBgaFnbx7edry4X9e+40jxSVbQqT9tB5UW0lsL45j8QXlrg1DpwQYXXXsgoTB614++ud3VY8bj04JMGxdZL8tU+9vb4aLZDvZnkLtFN+3keoYNwuUuf19CDaEDaGBcTQwHOzQzuXVRqAfhJunU8PcxqC+wxmULv8h3HzrejhU2Kn2yRKAWBcwJN0Ofjvr2FXWLuvOgOD327KA4XV2tMftujD0COSI3Xxb0nYVAJ5xboxHqxO0EfaGBnatgcFgh2HFeGTIi1Ngh3Y579zck0AopbW7oQ8ngHE9OzINRb+y8ea9cDoNdK2NQmnTUNmxXABDx8ubec4Xgc7TsWz0SWl1+Ew2F01lm7C5TRc3Ky11m811nWPdpV594tR10RugrrbR6PvhC9o0NA347AnxcEC284DA9hTAoDxo81G/AamEL8J7X0q4253deFlc2Dymz96Zql663Ji/33ZiJdjpaF/0Dvk6DXed9PUpwmBnaAAaOK4aGAx2ZslzI1NXDC3Z05PA57VL4UGa4npw7VK4kgZ7bby9hB2GjR/C+Xt2t3ILDfUu5WIXgRyJL/ATw2M6yltAgsPvfRoeJ/uSZ+UbKVeOC8xw3hJX4stxgqQCR911lLr6X8pf6u3Duo8FGMRrEwGj8nL0wM7DhwIEPm2BFcmPoUd2N2fAkrQ1UF289Xn4+ILc8Np5S76zBEYbw46vy3wRADtie/x2Xz+wDWwDDXgNDAc7DC6/CTcvX49Ao708jbU4FoZKx+wv7FhvSwUBCYieO19sETsreVY++zCvf7Kw0xHOwBLDCqwkL46BGQVCyUsk0MQgpMqNHiIb3wvKHtfl23DfVjkm2FHAIYO8AIlAcg/saMBgQMhpE+zk40dlUj7JQ0NxC6xQfWJ8nZ9ug8lb5RPjtNNyGu8RaraltoMuG/+LXvALLUAD0EC/BoaDHbMmR6AneW84zHlyWufmi7CXsNNYt1LBTiMOi7cBQTYtAUUHgCTPjJlG+qZ4dYwHiAFCe24aoNJVR4EP/8vll/JWvxjrQX51QKgBwwDJEngpU1syxeWmovTUmkyTCTgNDTsNz87qNuy/8JEP7AMNQAOHpIHBYKeGlAg8cVrLrt9hAx8Q7FhPDF1gNaDUcdKFWAGGS0vhCmCMeKu09uKuyuS8BJxcOfMIQuL1MeV4yJHjJeV359EBOwIVkn/TG7I97FjPjrYZ1eu+8fwYkBoYdjhvWrsk7cVv9m52a0f3F/6HnaABaCBqYFjYyWt0FkHW8MiiZA9D/lg6pOu8hG/6O94CZe0tIaO3oaH2ssQOqoDEeUuqcD0gNrxC2n6mzOwF0rBTpt54SosWOOtpLV1W6/8+EGvFz+cc7CRvSjWVtAPYiYue7RRasVmEnVwP8fIIhDlPjHiJcvzUvpW8VNy2+6GZ9mF9vtQRN3fYAhqABqABr4HBYGc2l6mrtGbnmn/7yoXrNT1z+/2dvIjZxNmu88aDnTgdpKeS2gt2bTxZZ2OnrNICY1lzk9bYtPOL9mKgyW+A0dtUelpJl3kvnG6BVEpLZVR1yXDS1TcJ7FQeXoDt4wgV+Y2nrsF9F7BDbUqgUcov3pXobZEprs/Dx7e+Dg8FdmRtUZreIg8RAY8Ai02b8pC1O1WZHcAl8VSZbRt29QnOw17QADRweBoYEHambbzRYOf/fhrOG8CYtp2mcRNwnp2lUHVANu3ycsFGmOKCBqABaKBTA4CdXW8X8f/uhTeVJ2YaMDF1OADs1DqJa5HI2ySeojrO1PsV9UOfQQPQwDgaAOzsGHZO3Sjfv9kLkee1PfJxRPvbN6W2evsBO6vbapwbB+oHu0MD0MBx0gBgZ8ew83cn/q7TrXachIK64sYGDUAD0AA0cFw1ANgB7ADGMM8NDUAD0AA0sNcaAOwAdvZa4Mf1KQT1xhM0NAANQAPDaQCwA9gB7OCJDhqABqABaGCvNQDYAezstcDxZDTckxFsCVtCA9DAcdUAYGcCsPPG2RshPHvh2EMHfUCve6uF/bxJ1G3+Xbjz4u0QXkl/R9iv154dp9x883vyamr31XBtxadk1j7Z6sV3wxsrpsnlIf6xv2egL/fzvjjFfh0Udi689kHc8fxa/Ipy3BdLd6b9UrJsJcGG+e0llfaDcPO0Trf9/6N9VHCFt7EAO63+rfe4WucCqiGkVcb25+pyIux89WR33ud+/2O48fZ34fWTLs7JO+GDtyks/r3ztA0/88J3OYzifPDCH5uD3Th6uhC+euV2aLb76buq3o12zxeBQO3+2d8127NOvyOu1QzsAXtAA1EDw8EOwUq1N5aCFrMruhcgQVDZFT1CUzkeorMAO97mwx/XA/82Zewj7PwlvPP2j+GdFwhq/KD/x/D6RXWOAcEdX7wTzog3g8FIhcv5+SKMAjuLd8P9VxoeHVfPCGx3wzlVX76+ySt0hF6wIe4pyGOb6xtpoZ+j1cBgsMOAYvaysjud0wafxpPjb3b6mMFIgZIO2/D/8WHHTW+ogUEGJz0NYZ+Q41Nzc2okDzIqzjpTArKZZdrPKe4H1bUXlN+vqXzVV/aR0tNYzb2g1J5ONryUSdAk+enfnDftDyV7SrEeykcIbZ4qH1Uu3WR8vPhVYmrP1+HjW5/H8h+lkbqUrxb3t3k27/bsnPt9ghMHAO2bXgKj5N1hSPj9X5Tng8KnDzvsxarq/WPwXqtZH+wkjeb+3/Ae0Lbz0d5wUQfYGxoYRwODwY7sci5TV7x7efb0JPB5TU9V9Xhu9g52Euh0PLky7LxS3Ph8rIDl2rP6idlNFzDs0FqNG+HOgkTkwnsHhjhw50GEN5lUQHPhZvji0WaWcnEyICjIYBBQEGE8O60dwFXauNlmARyf92we61YgQ10gPbAjdTV1cTaIoFPKljRSJoOUGmA5fmpnb5u5nG7YyeVsADszTlOmrhgitKdHtVHgOZenwnZ2LkO36qc5eas02MTj5hQcYCdfZzvro6PQAcpAP05UA8PBDjdQ7WyuvTxpCuuBOmdhSN8gUx4q7hAX/6ieHV64qYFFt7cx7dAcOEoas74hwY72BJnwPuE5IJnNyUPSs/cSx0+QoP9PZWjAqOCFQaoABsW1IFO8M7G/dwU7fW1UZar2ZdhR50STus3x3DCw04aZAgs3jLekaIPqsC7sCGxnz2FaXK01Je3t/CWNK0CP8QrsxHVKEdZqL9UizJZovrPcPn0jDAMvNAANJA0MBztmTY5AT/LecJjz5LTOzRehG4LsDX3dm9+YsOM9Nb7u1eDkb/wMS+pNG+UF2m6QiAO/9ewUIMmejtYU17KB33mJrEckQoWeoor/K6/Srjw7XG9djtbVNGCnua4leXbi9I9AT2Ptywaw4/W41nGC7fZ6G6ln8UhR3gQ+zcXVvXnpfsL/a/URBnwM+NBAGAx2GFKMNyYCT5zWsut3+EJtwA7noRYqD3lBjwk7vB6heuotN+xe2EkDgH7KNp4bD0ZribqGDu1tYUDRU08acPT/qUzj5eBwtWbmYQ1Ruqy6rxV4+DZtNY3lPUilHwTuuF6qfUfp2YmgU6/FYc+I8eZEkGhBQ6Unbz93zPHlVXn1qzVX94+22yJ0abyr3s01Oz3XyNLyXZsQ3/UP7APgOXANDAs7eY3OIsgaHlmU7GGoebwj0KEb36iwk9bRdL1aWw1OGmD4f1mPkwaVoTw7FTTYG2TbGyPQYqeDGAgelu/sGPBpXGQxvuRly5WBypav4pgpMQE2663h/DWoqTpwvs0wBVgt2HHTfL7Nsd6bT2N1gQ7ly9Cg1+gYT4+yzVF7dsSuWrNyjn7Ta+cZbvi44ZFaYc3OQ7U+TDSCX9v3sAfsAQ20NTAY7MzmMnUVv7Hz4Jp/+8qFay9QmgKjNOZPx9E30A3+Hxd2yPjqbSl+ei5reHphJ32DJK+nePHdcEd/k6RrkFnJRgIK2gOj1tI478wXt26Gb7WHhqEjpf3yfX7DKU+JubRxmsrCjcBCns6qACQClYTnvB+1jYElTa99cbXlrXFtcwOlTk/5Ry/TMth51I99bWabd8NOhJnyHZ34PR3x4sS3r+QbO/k3A06ZEpKwDBCurys9ufCd3Az7dGi+s9MAHapfH+wkyHyotXcUbUIZ8IZAA3ujgQFhp01TO7mxbiDA8WFngvZpeXaM12TzOhNMaDghHTBgOOiYij6Gq0c37AxXRn+/TA52Vrlee2Engevea6e/X49KPygH/bCPGgDsTGC7iLGE1ZrqYSCpPCzrXvxxcLKwE7009ty6+R6H+AcKO+y5VNOtqwCOimPWoanz2fsH0NmbJ+yx7nco9zjcP3dXR8DOAcOOLMiVaSL+3Rp0klgb01j7DzrU9gg7edqx49tKu7jxEjCMUW5uS35rsEzR5jAFMPoce6HctK4Ox/+7u/nDtrDtIWkAsHPQsIOL/ZAudrQVeocGoIFD1QBgB7AD93iH1+FQbwpoNwZEaAAa2DcNAHYAO4AdwA40AA1AA9DAXmtGw+W6AAAKhUlEQVQAsAPY2WuB79vTCdqDJ25oABqABtbXAGAHsAPYwRMdNAANQAPQwF5rALAD2NlrgeMJaP0nINgMNoMGoIF90wBg5whhR16zXWvPITxtAMagAWgAGoAGoIGtNDAo7Fx47QOz3UPcBFQTMm0IWraEkH2z6q0mPgg3T+t02/8/hS8obw47I36orvWV5SO56Nz2CGYTzO31sG9PLWgPNAENQAPQQLcGhoOd314KD6qNQBW0pP2vCuB0V2pGeQ28KegUYGdzIR4e7NjdsuO+Ua0dvje3aY/+jgTmUD76DhqABqCBo9LAYLDDXh2zcSd5cQrs0C7nK4EODTQMRpfClQEHnXFhR28CWn9Snzw+tCO6/gKuTHXpc/nruHrX8yU2kj2q8mf386aXcpF1bLbZ+AJy/NKy3cxzJ0LlHb1lg8xYT95EM2+KGc/FNtndzndSnyU2RpmiJfxCC9AANDBNDQwGOxFQrgeZuiK4KZ6eBD6vkcdGprG6YaYGp+2NNy7sSP0JetqwQyBDwEMXCk93vfhueCMPspt7dnivK9odPO0tZPfD8ntYRfCJO4CnOo8xjUW7ZGuwybtm2x2zATuiK/xigIEGoAFooE8Dw8EOD8y/CTcvJ5jRXp40hfVAnbMwRJ2k1/MUj1Bf5dcJmzzs6D2UFu+G+6/o/YW2hB293xV7bJJ3hv7XYfNFYIDQmy5uCjvcBrVXE+9/dDsE3c4Mc+4iFdhhD8+P4cbbBDk0lWW9Pev0P+I6G3fZHue3WgQJnUFn0MA0NTAc7Jg1OQI9yXvTmpZqncs32gg+K0975XTdRj5k2OncgJNAhrw+/m8I2FmhTzpvCi1PDoOP9ex0pt+mbKTFYA8NQAPQwN5pYDDYYU+N8tzIG1ZxWsuu3+FBqhd2FoHykymxIQY1wE4DBFfx2qwSp3Vj2Maz01izMxNvT6ssnNu7G9MQ1zzyaFzzuFZwrRyoBoaFneptrLIo2cOQPzY3JgahYaeyjjfsLOLi5VWmgJyQZYGysW+OE9fodHp+KB5Pex31IuD02nletxOP/dtYcc3O/WDWGOW24Ubf7nPYBXaBBqCBw9PAYLAjnpyyALmAThSWTG011vSY9ToUPizoUPmjws6TV4N+kyr+XxYq84JkDTLVmh0Spn6jqyxmXnbR9sMO5WvfxqIpLQ8PAhVH9jYWA4v9zo4HHW63TMPpaTfADp5coQFoABqABpwGBoSdaZPiqLDjjL4MUBC+opbS6/EezmC/Fe0HXWJAgAaggQPRAGDnCLeLwCA81CAcX5lveaFg46FsjHygJWgAGtgfDQB2ADt4sjmQJxvcuPfnxo2+RF9CA+tpALAD2AHsAHagAWgAGoAG9loDgB3Azl4LHE8/6z39wF6wFzQADeyjBg4Gdv7Pv70SfnHqf+EPNoAGoAFoABqABg5MAwcFO/tIq2gTnsKgAWgAGoAGoIF+DQB2ME+Laawj1MCZs/+8sr0p7rI/f4Nblv+ycJ8fjvtvoLAP7AMNHA8NAHaOcKDDRXE8Lopd9tM6sLEsblf4uud32V7kDc1DA9DAFDQA2NlL2PlF+CV5BX79q/A3O2lfyv8ff7Gyl2IKYh+7DgIh8rusPsvi6XD6f92/ZeUPF76dHn/+j9S2fwon/xaDxnB9AlvCloelgUFh51/+80a4fft2/rvxn79zg+GF8J4Kf+8/Gsb+j6sx/fsXXNpG3DUGclqgfDji3m5wWW6nA4Odv/1V+BXBRA/cxQH5n8MvT7R1qsGE7OuPWzZfFmdZeCvPcc5tp8c+2KGwX/3D3x/Qtd3W1zj9irrA7sdHA8PBDkHKR++GfxEA+dd3w43bN8J//WsyBh/fDk3AkTRzgqEb4b33b4TbgB3cwLMuxrug/uYf/ok9ZCfJu9AFOyfOhDO/PhN++es27HRBSdd5uYFS+LI/iUu/XXF1HInnzx3XY8DOeNfGcdUM6n2YmhkMdtirYwAlgovAzr+/vwx0FoHiEOTUeW3fOfvh2fn7cPLXbnqKBtqzZZDlwVkGydbgnOLLwOg9EeKhiOF66iA9nUve3tPBA76eNqP4kp7qTf/rPM6En2eYofNnws/Fg0J5qyk4bpNuC8fz6RUYqLRb3dionFQu20XXwdSd7B/7xtuT7KjrsOy4L64Oo/9XyUviyG8rnc93yON+Pfb3+0zrgfSRbb4IJt8uTar4Q7YJeW1/P4YNYcOj1sBgsDNLnhuZumJwyZ6eBD7/maaoeCrravh3fTPi6at4DrDTdyFEYIiu+/i/H2BJRBUgsK1/EX6pB2wGnzKIcBoFCnFAKeFanNXgvxR29LqLCAZl+iG240we0Gy7qrYY2PF5xeNOL4zW3Br/V+1Nact5CzsEFxowxHZd57rOS7rWr0/jjymNnJNffa6VZ9c5bie3qa2HrnRyvupD0aPJ0/a7pI3Q0y6X6lV01HfdICzbcw3dIw10sy8aGA52+AL6Xfivj9KaHe3lSSCkp6YsDMV0MsUF2FlygaXB/iRNsWh4UTex9uDi86XBRbwvrYHGDuBa9GWQT3muADsaymz9dD1ifnoQs3EXwQx+Dti4jgaGfJs3O67aS7Y25XTbSttNQ4c+3/p/WVwfTsetP8pbx9X/t8qtzrGNVd4dmqvSLdVjf7/n/Iydbf9pneT4qlycs/aCPWCPQ9XAcLBj1uQI9CTvDYc5T4465+HGHw/ROfsxjVUuVAaA7Akp58VWFSCkAYAHbTMoatiR/yW/7gG8GvzHhB3ljeL29wyOYp91f6v2zr1t/LHY0P6uAxotcPHndDtaecs5+aX4+n+dvvN/wI6Ziuy0EyALdoIGJquBwWBH1tuUG0EEnjitZdfvcJwMOwJG5S2u8kaXWuC8pYj2CnYSWPw8LZ5tvV7egp0akPSTdcuz0zoXB+9q8B8Tdjz08eDcnvYo+rQQsux81V4GKuXt0ADp4Utpdx3QWBbXh/tjapOck199blmbdTi330w5rWe/lh5nc62/oqtqWqoHXqleVXxlb90G/L9en8FesNc+aWBY2MlrdBZB1vDI1JSHIX+sjQrPTt9FpgEkehNaN/vW4MLn1EAcB7DizeFjFe7j6z7iuHo6wwBGrFf5Nkrt9bD16x/0bD1i+/36nmKDtk1iW8tCbt2WVf6v2lsNqHUbW/lq6GiF63PL4vpwOm79UZ46rv5fl7fL/21/i777+z3Xpwd2rDYkX/xm21U6hW1gm8PUwGCwM5vXHhoBnSguF67X9LgLErDTJcY00FeQIU+3Ahlu0MvxBRRi+K/+4VdqzU4sU6AgDprd3pHW4K/T/vKEHshqELCDn45b6uEBJtbpn8LJE/TdG103267mOiaGMbFTl339eZevwES2p45ft7F1U10VNFaJ5+P4Yyp/1XOtum5/bhU9Ftim8khD0u+sEbF5/tX9TvZ3ZTT7RvcT/t++X2FD2PD4aWBA2Jl24/dqGsvB4RgXnh6Uxih/7TLTtJNeJL12HgPYvQUfrXqsEs/H8ceU76rnWnXAuWnf09A/6B9oYHUNAHYGGMAOTnATAYfV7F6e/McGHapvCz58O5bFoXD502l1Oglfdk6nx/+r3zhhK9gKGjheGvj/djqYRSthZxIAAAAASUVORK5CYII=;aspect=fixed;movable=1;resizable=1;rotatable=1;deletable=1;editable=1;locked=0;connectable=1;direction=east;container=0;" vertex="1" parent="1">
          <mxGeometry x="655" y="565.5" width="50" height="49" as="geometry" />
        </mxCell>
        <mxCell id="1jPVc72UJ_S0n0Acf6Za-13" value="" style="edgeStyle=orthogonalEdgeStyle;rounded=0;orthogonalLoop=1;jettySize=auto;html=1;" edge="1" parent="1" source="1jPVc72UJ_S0n0Acf6Za-10" target="1jPVc72UJ_S0n0Acf6Za-12">
          <mxGeometry relative="1" as="geometry" />
        </mxCell>
        <mxCell id="1jPVc72UJ_S0n0Acf6Za-10" value="检查是否有另一个IPMIMain在运行" style="whiteSpace=wrap;html=1;" vertex="1" parent="1">
          <mxGeometry x="120" y="840" width="120" height="60" as="geometry" />
        </mxCell>
        <mxCell id="1jPVc72UJ_S0n0Acf6Za-15" value="" style="edgeStyle=orthogonalEdgeStyle;rounded=0;orthogonalLoop=1;jettySize=auto;html=1;" edge="1" parent="1" source="1jPVc72UJ_S0n0Acf6Za-12" target="1jPVc72UJ_S0n0Acf6Za-14">
          <mxGeometry relative="1" as="geometry" />
        </mxCell>
        <mxCell id="1jPVc72UJ_S0n0Acf6Za-12" value="解析传入命令行参数" style="whiteSpace=wrap;html=1;" vertex="1" parent="1">
          <mxGeometry x="120" y="980" width="120" height="60" as="geometry" />
        </mxCell>
        <mxCell id="1jPVc72UJ_S0n0Acf6Za-17" value="" style="edgeStyle=orthogonalEdgeStyle;rounded=0;orthogonalLoop=1;jettySize=auto;html=1;" edge="1" parent="1" source="1jPVc72UJ_S0n0Acf6Za-14" target="1jPVc72UJ_S0n0Acf6Za-16">
          <mxGeometry relative="1" as="geometry" />
        </mxCell>
        <mxCell id="1jPVc72UJ_S0n0Acf6Za-14" value="守护进程模式相关" style="whiteSpace=wrap;html=1;" vertex="1" parent="1">
          <mxGeometry x="120" y="1120" width="120" height="60" as="geometry" />
        </mxCell>
        <mxCell id="1jPVc72UJ_S0n0Acf6Za-19" value="" style="edgeStyle=orthogonalEdgeStyle;rounded=0;orthogonalLoop=1;jettySize=auto;html=1;" edge="1" parent="1" source="1jPVc72UJ_S0n0Acf6Za-16" target="1jPVc72UJ_S0n0Acf6Za-18">
          <mxGeometry relative="1" as="geometry" />
        </mxCell>
        <mxCell id="1jPVc72UJ_S0n0Acf6Za-16" value="检索已启用的功能" style="whiteSpace=wrap;html=1;" vertex="1" parent="1">
          <mxGeometry x="120" y="1260" width="120" height="60" as="geometry" />
        </mxCell>
        <mxCell id="1jPVc72UJ_S0n0Acf6Za-21" value="" style="edgeStyle=orthogonalEdgeStyle;rounded=0;orthogonalLoop=1;jettySize=auto;html=1;" edge="1" parent="1" source="1jPVc72UJ_S0n0Acf6Za-18" target="1jPVc72UJ_S0n0Acf6Za-20">
          <mxGeometry relative="1" as="geometry" />
        </mxCell>
        <mxCell id="1jPVc72UJ_S0n0Acf6Za-18" value="初始化信号处理" style="whiteSpace=wrap;html=1;" vertex="1" parent="1">
          <mxGeometry x="120" y="1400" width="120" height="60" as="geometry" />
        </mxCell>
        <mxCell id="1jPVc72UJ_S0n0Acf6Za-23" value="" style="edgeStyle=orthogonalEdgeStyle;rounded=0;orthogonalLoop=1;jettySize=auto;html=1;" edge="1" parent="1" source="1jPVc72UJ_S0n0Acf6Za-20" target="1jPVc72UJ_S0n0Acf6Za-22">
          <mxGeometry relative="1" as="geometry" />
        </mxCell>
        <mxCell id="1jPVc72UJ_S0n0Acf6Za-20" value="初始化消息队列，用于进程间通信" style="whiteSpace=wrap;html=1;" vertex="1" parent="1">
          <mxGeometry x="120" y="1540" width="120" height="60" as="geometry" />
        </mxCell>
        <mxCell id="1jPVc72UJ_S0n0Acf6Za-25" value="" style="edgeStyle=orthogonalEdgeStyle;rounded=0;orthogonalLoop=1;jettySize=auto;html=1;dashed=1;dashPattern=8 8;" edge="1" parent="1" source="1jPVc72UJ_S0n0Acf6Za-22" target="1jPVc72UJ_S0n0Acf6Za-24">
          <mxGeometry relative="1" as="geometry" />
        </mxCell>
        <mxCell id="1jPVc72UJ_S0n0Acf6Za-22" value="获取BMC配置信息" style="whiteSpace=wrap;html=1;" vertex="1" parent="1">
          <mxGeometry x="120" y="1680" width="120" height="60" as="geometry" />
        </mxCell>
        <mxCell id="1jPVc72UJ_S0n0Acf6Za-27" value="" style="edgeStyle=orthogonalEdgeStyle;rounded=0;orthogonalLoop=1;jettySize=auto;html=1;" edge="1" parent="1" source="1jPVc72UJ_S0n0Acf6Za-24" target="1jPVc72UJ_S0n0Acf6Za-26">
          <mxGeometry relative="1" as="geometry" />
        </mxCell>
        <mxCell id="1jPVc72UJ_S0n0Acf6Za-31" value="" style="edgeStyle=orthogonalEdgeStyle;rounded=0;orthogonalLoop=1;jettySize=auto;html=1;dashed=1;endArrow=none;endFill=0;" edge="1" parent="1" source="1jPVc72UJ_S0n0Acf6Za-24" target="1jPVc72UJ_S0n0Acf6Za-30">
          <mxGeometry relative="1" as="geometry" />
        </mxCell>
        <mxCell id="1jPVc72UJ_S0n0Acf6Za-24" value="InitPDKPARHooks" style="whiteSpace=wrap;html=1;" vertex="1" parent="1">
          <mxGeometry x="414" y="1680" width="120" height="60" as="geometry" />
        </mxCell>
        <mxCell id="1jPVc72UJ_S0n0Acf6Za-29" value="" style="edgeStyle=orthogonalEdgeStyle;rounded=0;orthogonalLoop=1;jettySize=auto;html=1;" edge="1" parent="1" source="1jPVc72UJ_S0n0Acf6Za-26" target="1jPVc72UJ_S0n0Acf6Za-28">
          <mxGeometry relative="1" as="geometry" />
        </mxCell>
        <mxCell id="1jPVc72UJ_S0n0Acf6Za-33" value="" style="edgeStyle=orthogonalEdgeStyle;rounded=0;orthogonalLoop=1;jettySize=auto;html=1;dashed=1;endArrow=none;endFill=0;" edge="1" parent="1" source="1jPVc72UJ_S0n0Acf6Za-26" target="1jPVc72UJ_S0n0Acf6Za-32">
          <mxGeometry relative="1" as="geometry" />
        </mxCell>
        <mxCell id="1jPVc72UJ_S0n0Acf6Za-34" style="edgeStyle=orthogonalEdgeStyle;rounded=0;orthogonalLoop=1;jettySize=auto;html=1;" edge="1" parent="1" source="1jPVc72UJ_S0n0Acf6Za-26" target="1jPVc72UJ_S0n0Acf6Za-35">
          <mxGeometry relative="1" as="geometry">
            <mxPoint x="680" y="1910" as="targetPoint" />
          </mxGeometry>
        </mxCell>
        <mxCell id="1jPVc72UJ_S0n0Acf6Za-26" value="InitPMConfig" style="whiteSpace=wrap;html=1;" vertex="1" parent="1">
          <mxGeometry x="414" y="1820" width="120" height="60" as="geometry" />
        </mxCell>
        <mxCell id="1jPVc72UJ_S0n0Acf6Za-37" value="" style="edgeStyle=orthogonalEdgeStyle;rounded=0;orthogonalLoop=1;jettySize=auto;html=1;dashed=1;endArrow=none;endFill=0;" edge="1" parent="1" source="1jPVc72UJ_S0n0Acf6Za-28" target="1jPVc72UJ_S0n0Acf6Za-36">
          <mxGeometry relative="1" as="geometry" />
        </mxCell>
        <mxCell id="1jPVc72UJ_S0n0Acf6Za-28" value="InitBMCSharedMem" style="whiteSpace=wrap;html=1;" vertex="1" parent="1">
          <mxGeometry x="414" y="1960" width="120" height="60" as="geometry" />
        </mxCell>
        <mxCell id="1jPVc72UJ_S0n0Acf6Za-30" value="用于初始化PDK句柄数组的函数；&lt;br&gt;该句柄数组用于调用cdf生成的类似UserInfo_LoadFile等生成的函数" style="whiteSpace=wrap;html=1;dashed=1;align=left;" vertex="1" parent="1">
          <mxGeometry x="614" y="1680" width="236" height="60" as="geometry" />
        </mxCell>
        <mxCell id="1jPVc72UJ_S0n0Acf6Za-32" value="从非易失性存储器（NVRAM）加载SDR（Sensor Data Record），SEL（System Event Log）和其他PM配置到RAM中" style="whiteSpace=wrap;html=1;dashed=1;" vertex="1" parent="1">
          <mxGeometry x="660" y="1780" width="246" height="60" as="geometry" />
        </mxCell>
        <mxCell id="1jPVc72UJ_S0n0Acf6Za-35" value="从INI文件/dat文件中获取配置" style="rounded=0;whiteSpace=wrap;html=1;" vertex="1" parent="1">
          <mxGeometry x="680" y="1880" width="120" height="60" as="geometry" />
        </mxCell>
        <mxCell id="1jPVc72UJ_S0n0Acf6Za-36" value="初始化与BMC相关的共享内存区域。该函数为不同的内存区域分配并初始化资源，以便它们可以在整个BMC堆栈中使用" style="whiteSpace=wrap;html=1;dashed=1;" vertex="1" parent="1">
          <mxGeometry x="614" y="1960" width="256" height="60" as="geometry" />
        </mxCell>
      </root>
    </mxGraphModel>
  </diagram>
</mxfile>
